<?xml version="1.0" standalone="no"?><!DOCTYPE svg PUBLIC "-//W3C//DTD SVG 1.1//EN" "http://www.w3.org/Graphics/SVG/1.1/DTD/svg11.dtd"><svg class="icon" width="200px" height="200.00px" viewBox="0 0 1024 1024" version="1.1" xmlns="http://www.w3.org/2000/svg"><path fill="#2c2c2c" d="M512 0c282.30656 0 512 229.69344 512 512s-229.69344 512-512 512S0 794.30656 0 512 229.69344 0 512 0z m0 71.68c-242.81088 0-440.32 197.50912-440.32 440.32 0 242.80064 197.50912 440.32 440.32 440.32s440.32-197.51936 440.32-440.32c0-242.81088-197.50912-440.32-440.32-440.32zM512 143.36c102.04672 0 184.80128 82.05312 184.80128 183.30112 0 101.2224-82.71872 183.26528-184.80128 183.26528-102.07744 0-184.77056-82.05312-184.77056-183.26528C327.22944 225.41312 409.9584 143.36 512 143.36z m0 55.2704c-70.69184 0-128 57.3184-128 127.99488 0 70.71744 57.30816 128 128 128s128-57.31328 128-128c0-70.7072-57.30816-128-128-128zM514.55488 527.36l6.9888 0.0512c173.28128 2.7648 321.15712 108.09856 383.6928 256.95744l0.20992-0.21504-49.7664 49.7664-0.21504 0.22016c-46.63296-141.5168-181.66272-243.82464-340.91008-243.82464l-5.92384 0.0512c-168.92416 2.69312-309.48352 120.50432-344.192 277.24288-19.3792-27.69408-34.90816-50.3808-46.57664-68.0704C177.2544 640.68096 332.416 527.36 514.55488 527.36z" /></svg>