<?xml version="1.0" standalone="no"?><!DOCTYPE svg PUBLIC "-//W3C//DTD SVG 1.1//EN" "http://www.w3.org/Graphics/SVG/1.1/DTD/svg11.dtd"><svg class="icon" width="200px" height="195.42px" viewBox="0 0 1048 1024" version="1.1" xmlns="http://www.w3.org/2000/svg"><path fill="#2c2c2c" d="M136.38624 1004.353a108.782 108.782 0 0 1-77.753-32.267C38.91524 952.51 28.15124 927.1 28.03224 900.81c0-26.576 11.145-52.867 30.601-72.323l320.631-304.342c0-0.619 0.143-1.286 0.143-1.905-0.405-38.912-0.524-90.731 1.024-121.856 3.381-71.918 39.531-110.544 54.963-123.761l256.476-256.5a69.06 69.06 0 0 1 97.47 0 69.06 69.06 0 0 1 0 97.47l-197.894 196.99c-0.905 3.095-1.31 6.215-1.31 8.168 0 9.597 7.788 17.384 17.504 17.384 0.786 0 3.096 0 7.263-2.477L816.29824 136.24c25.933-26.053 71.442-26.053 97.47 0a68.918 68.918 0 0 1 0 97.351L713.77824 433.7c-1.928 3.62-2.19 5.715-2.19 7.001 0 9.597 7.763 17.384 17.503 17.384 2.19 0 5.049-1.048 8.55-3.143a2.834 2.834 0 0 0 0.642-0.381l192.084-192.084a68.918 68.918 0 0 1 97.327 0 68.918 68.918 0 0 1 0 97.352L769.78924 617.734c-11.93 13.883-50.557 50.033-122.356 53.415-29.172 1.428-77.395 1.428-117.308 1.024l-316.63 300.436a108.353 108.353 0 0 1-77.11 31.744z m298.365-474.73c-0.143 1.428-0.143 3.905-0.262 7.525-0.143 7.382-3.24 14.526-8.693 19.575L97.49724 868.257c-8.549 8.549-13.74 20.599-13.74 32.387 0 11.669 4.93 22.694 14.288 31.887 20.48 20.599 56.106 20.48 76.443 0.119l325.441-308.724c5.31-5.049 11.55-7.764 19.456-7.62 40.555 0.38 94.065 0.642 125.333-0.93 51.581-2.452 77.49-27.862 84.23-35.625L988.28324 320.298a13.098 13.098 0 1 0-18.527-18.528L772.24224 499.283c-3.882 3.882-8.573 6.335-13.622 7.502a68.632 68.632 0 0 1-29.672 7.001 73.3 73.3 0 0 1-73.228-73.109c0-11.264 2.977-22.266 8.954-33.41 1.43-3.501 3.358-6.74 6.073-9.336l203.61-203.49a13.098 13.098 0 1 0-9.336-22.433 12.669 12.669 0 0 0-9.192 3.906l-203.61 203.37a26.172 26.172 0 0 1-4.143 3.335c-12.955 8.811-26.696 13.24-40.555 13.24a73.323 73.323 0 0 1-73.228-73.228c0-10.502 2.572-23.218 6.977-33.815 1.43-3.382 3.501-6.502 6.097-9.216l202.18-201.8a13.098 13.098 0 1 0-18.527-18.527L473.11524 317.178c-9.216 8.05-34.745 33.816-37.079 85.54-1.428 30.482-1.285 82.682-0.904 121.189 0.119 1.953-0.12 3.882-0.381 5.715zM307.46524 642.785c-7.144 0-14.24-2.738-19.694-8.168L48.51224 394.954a28.148 28.148 0 0 1-3.096-3.762c-2.857-4.144-28.529-43.556-41.103-144.122-9.597-76.872-0.238-134.787 0.143-137.121 1.667-7.144 13.479-51.08 49.771-68.822 13.98-6.883 36.793-12.193 66.489 1.024 3.096 1.429 5.953 3.381 8.287 5.834l303.27 303.533a27.862 27.862 0 1 1-39.387 39.412L93.75924 91.398c-9.216-3.096-13.622-0.905-15.17-0.238-10.645 5.167-18.146 23.695-19.694 29.934 0.119 0-7.787 51.7 0.643 119.094 9.335 75.3 26.433 109.9 30.839 117.807l236.782 237.187a27.862 27.862 0 0 1-19.694 47.58z m464.134 367.926c-21.79 0-44.985-9.573-69.227-33.816L453.51624 727.659a27.862 27.862 0 1 1 39.412-39.388l248.856 249.237c20.718 20.718 33.316 33.435 87.492-20.742 29.792-29.815-3.643-65.846-7.525-69.847L628.90624 653.55c-10.907-10.907-20.623 0.334-9.74-10.55s23.814-23.813 49.128-28.862l193.25 193.607c30.958 31.768 58.32 97.352 7.263 148.433-28.79 28.767-61.32 54.534-97.208 54.534z" /></svg>