<?xml version="1.0" standalone="no"?><!DOCTYPE svg PUBLIC "-//W3C//DTD SVG 1.1//EN" "http://www.w3.org/Graphics/SVG/1.1/DTD/svg11.dtd"><svg class="icon" width="200px" height="199.80px" viewBox="0 0 1025 1024" version="1.1" xmlns="http://www.w3.org/2000/svg"><path fill="#2c2c2c" d="M1011.2 392.192L820.224 141.824c-46.08-60.416-163.328-54.272-177.152-53.76-10.752 0.512-19.456 8.192-22.016 18.432-1.024 3.584-22.016 92.16-103.424 92.16-87.04 0-102.4-87.04-102.912-90.624-1.536-9.728-9.216-17.92-18.944-19.968-111.104-23.552-167.424 50.176-169.472 52.224L19.456 392.704c-12.8 15.36-17.92 34.304-14.848 53.248 3.072 18.432 14.848 34.304 31.744 44.544l153.088 89.088v292.352c0 39.936 32.256 72.192 72.192 72.192h505.344c39.936 0 72.192-32.256 72.192-72.192V576.512l152.064-87.04c16.896-9.728 28.672-25.6 32.768-44.032 3.584-18.432-1.024-37.888-12.8-53.248zM967.68 448l-128 73.216v-83.968c0-13.312-10.752-24.064-24.064-24.064s-24.064 10.752-24.064 24.064v434.688c0 12.8-11.264 24.064-24.064 24.064H261.632c-13.312 0-24.064-10.752-24.064-24.064V437.248c0-13.312-10.752-24.064-24.064-24.064s-24.064 10.752-24.064 24.064v86.528L60.416 448.512c-5.12-3.072-7.68-6.656-8.704-11.264-1.024-4.608 1.024-9.728 4.608-13.824l208.384-252.416c0.512-0.512 35.328-46.08 106.496-37.376 13.312 47.104 55.808 113.664 146.432 113.664 83.968 0 128.512-65.024 144.896-111.616 35.328 0 97.28 6.656 118.784 35.328L972.8 421.376c3.584 4.608 5.12 9.728 4.096 14.848A17.419 17.419 0 0 1 967.68 448zM514.048 338.432c129.536 0 190.976-133.12 193.536-139.264 5.632-12.288 0-26.112-12.288-31.744-12.288-5.632-26.112 0-31.744 12.288-0.512 1.024-51.2 110.592-149.504 110.592S364.544 180.736 364.544 179.712c-5.632-12.288-19.456-17.408-31.744-11.776-12.288 5.632-17.408 19.456-11.776 31.744 2.048 5.632 64 138.752 193.024 138.752z m211.968 461.824H302.592c-13.312 0-24.064 10.752-24.064 24.064s10.752 24.064 24.064 24.064h423.424c13.312 0 24.064-10.752 24.064-24.064s-10.752-24.064-24.064-24.064z" /></svg>