<?xml version="1.0" standalone="no"?><!DOCTYPE svg PUBLIC "-//W3C//DTD SVG 1.1//EN" "http://www.w3.org/Graphics/SVG/1.1/DTD/svg11.dtd"><svg class="icon" width="200px" height="200.00px" viewBox="0 0 1024 1024" version="1.1" xmlns="http://www.w3.org/2000/svg"><path fill="#2c2c2c" d="M838.3 170v-43.2c0-14.3-12-25.8-26.8-25.8H222c-14.8 0-26.8 11.6-26.8 25.8v43H190c-68.5 0-124.3 53.8-124.3 119.8v518.2c0 66.1 55.8 119.8 124.3 119.8h644.6c68.5 0 124.3-53.8 124.3-119.8V289.6c-0.1-64.9-53.8-117.7-120.6-119.6z m66.9 119.6v155.8h-67V221.8c37.3 1.9 67 31.4 67 67.8zM248.8 152.5h535.9v292.8H248.8V152.5zM190 221.4h5.2v223.9h-71.4c-1.5 0-3 0.2-4.5 0.4V289.6c0-37.6 31.7-68.2 70.7-68.2z m644.6 654.5H190c-39 0-70.7-30.6-70.7-68.2V496.6c1.5 0.2 2.9 0.4 4.5 0.4h781.4v310.7c0 37.6-31.7 68.2-70.6 68.2zM577.3 285.3c9.2 0 16.6-7.2 16.6-16 0-8.9-7.5-16-16.6-16h-35.1l33.3-32.1c6.5-6.3 6.5-16.4 0-22.6-6.5-6.3-17-6.3-23.5 0l-41.2 39.7-41.2-39.7c-6.5-6.3-17-6.3-23.5 0-6.5 6.2-6.5 16.4 0 22.6l33.3 32.1h-35.1c-9.2 0-16.6 7.2-16.6 16s7.4 16 16.6 16h49.8v32h-49.8c-9.2 0-16.6 7.2-16.6 16s7.4 16 16.6 16h49.8V392c0 8.9 7.4 16 16.6 16 9.2 0 16.6-7.2 16.6-16v-42.7h49.8c9.2 0 16.6-7.2 16.6-16 0-8.9-7.5-16-16.6-16h-49.8v-32h50z"  /><path fill="#2c2c2c" d="M834.6 929.9H190c-69.9 0-126.7-54.8-126.7-122.2V289.6c0-67.4 56.8-122.1 126.7-122.1h2.8v-40.7c0-15.5 13.1-28.2 29.2-28.2h589.4c16.1 0 29.2 12.6 29.2 28.2v41c32.1 1.5 62.1 14.5 84.7 36.8 23.2 22.9 35.9 53.1 35.9 85.1v518.2c0 67.2-56.8 122-126.6 122zM190 172.1c-67.2 0-121.9 52.7-121.9 117.5v518.2c0 64.8 54.7 117.5 121.9 117.5h644.6c67.2 0 121.9-52.7 121.9-117.5V289.6c0-63.9-51.9-115.4-118.3-117.3l-2.3-0.1v-45.5c0-13-10.9-23.5-24.4-23.5H222c-13.4 0-24.4 10.5-24.4 23.5v45.4H190z m644.6 706.1H190c-40.3 0-73.1-31.6-73.1-70.5V493.8l2.8 0.5c1.1 0.2 2.5 0.4 4.1 0.4h783.8v313.1c0 38.8-32.7 70.4-73 70.4z m-712.9-379v308.5c0 36.3 30.6 65.8 68.3 65.8h644.6c37.6 0 68.3-29.5 68.3-65.8V499.3h-779c-0.8 0-1.5 0-2.2-0.1z m-4.8-50.7v-159c0-38.9 32.8-70.5 73.1-70.5h7.6v228.6h-73.8c-1.5 0-2.9 0.2-4.1 0.4l-2.8 0.5zM190 223.8c-37.6 0-68.3 29.5-68.3 65.8v153.5c0.7-0.1 1.3-0.1 2.1-0.1h69V223.8H190z m717.6 223.9h-71.8V219.3l2.5 0.1c38.8 2 69.3 32.8 69.3 70.1v158.2z m-66.9-4.7h62.2V289.6c0-34-27.1-62.2-62.2-65.3V443z m-53.6 4.7H246.4V150.2h540.7v297.5zM251.2 443h531.1V154.9H251.2V443z m259.7-32.6c-10.5 0-19-8.2-19-18.4v-40.4h-47.4c-10.5 0-19-8.2-19-18.4 0-10.1 8.5-18.4 19-18.4h47.4v-27.3h-47.4c-10.5 0-19-8.2-19-18.4 0-10.1 8.5-18.4 19-18.4h29.2l-29.1-28.1c-3.6-3.5-5.6-8.1-5.6-13s2-9.5 5.6-13c7.4-7.2 19.4-7.2 26.8 0l39.5 38.1 39.5-38.1c7.4-7.2 19.5-7.2 26.9 0 3.6 3.5 5.6 8.1 5.6 13s-2 9.5-5.6 13l-29.2 28.1h29.2c10.5 0 19 8.2 19 18.4 0 10.1-8.5 18.4-19 18.4h-47.4v27.3h47.4c10.5 0 19 8.2 19 18.4 0 10.1-8.5 18.4-19 18.4h-47.4V392c0 10.1-8.6 18.4-19 18.4z m-66.5-90.8c-7.8 0-14.2 6.1-14.2 13.7 0 7.5 6.4 13.7 14.2 13.7h52.2v45c0 7.5 6.4 13.7 14.2 13.7 7.8 0 14.2-6.1 14.2-13.7v-45h52.2c7.8 0 14.2-6.1 14.2-13.7s-6.4-13.7-14.2-13.7H525v-36.7h52.2c7.8 0 14.2-6.1 14.2-13.7 0-7.5-6.4-13.7-14.2-13.7h-40.9l37.5-36.1c2.7-2.6 4.2-6 4.1-9.7 0-3.6-1.5-7.1-4.1-9.6-5.5-5.4-14.6-5.4-20.1 0l-42.9 41.3-42.8-41.3c-5.5-5.4-14.6-5.4-20.1 0-2.7 2.6-4.2 6-4.2 9.6 0 3.6 1.5 7.1 4.2 9.7l37.4 36.1h-40.9c-7.8 0-14.2 6.1-14.2 13.7 0 7.5 6.4 13.7 14.2 13.7h52.2v36.7h-52.2z"  /></svg>