<?xml version="1.0" standalone="no"?><!DOCTYPE svg PUBLIC "-//W3C//DTD SVG 1.1//EN" "http://www.w3.org/Graphics/SVG/1.1/DTD/svg11.dtd"><svg t="1585836098133" class="icon" viewBox="0 0 1024 1024" version="1.1" xmlns="http://www.w3.org/2000/svg" p-id="10193" xmlns:xlink="http://www.w3.org/1999/xlink" width="200" height="200"><defs><style type="text/css"></style></defs><path d="M505.17312297 0.88729271c-282.25214928 3.77245713-508.05966823 235.68881588-504.28583026 518.01414972 3.77245713 282.1278736 235.68881588 508.00857712 517.94096516 504.209884 282.24938759-3.77245713 508.05552571-235.68881588 504.28444942-518.01138801-3.7241277-282.17758388-235.68881588-507.98372198-517.93958432-504.21264571z m56.66418402 170.36123655c51.94308925 0 67.27870742 30.10923415 67.27870741 64.59849538 0 43.08223369-34.51549721 82.90292133-93.34760131 82.90292133-49.21592861 0-72.6322273-24.77780773-71.24448226-65.67002786 0.02485514-34.49064208 28.91618768-81.83138885 97.31337616-81.83138885z m-133.23871186 660.23246945c-35.51384513 0-61.50817362-21.56735281-36.68065562-116.34964777l40.7223767-168.02071133c7.05747744-26.94572782 8.22704962-37.72733298 0-37.72733298-10.61314256 0-56.73874942 18.62201934-83.99930894 36.94715791l-17.72033029-29.06117595c86.40887618-72.12131618 185.74380332-114.44961077 228.31236421-114.44961078 35.48898999 0 41.37965694 42.01208204 23.66070751 106.61057741L536.23375645 686.11850443c-8.22566878 31.22771522-4.67414619 42.01208204 3.55152259 42.01208202 10.61314256 0 45.56774717-12.89981497 79.88716498-39.89525304l20.05671295 26.94710865c-83.95236035 83.94821783-175.56976813 116.29855664-211.13056184 116.29855665z" p-id="10194" fill="#000000"></path></svg>