<?xml version="1.0" standalone="no"?><!DOCTYPE svg PUBLIC "-//W3C//DTD SVG 1.1//EN" "http://www.w3.org/Graphics/SVG/1.1/DTD/svg11.dtd"><svg class="icon" width="200px" height="200.00px" viewBox="0 0 1024 1024" version="1.1" xmlns="http://www.w3.org/2000/svg"><path fill="#2c2c2c" d="M436.66 616.26h-28.84a11.94 11.94 0 0 1-11.67-9.4L387 564.62a11.94 11.94 0 0 1 11.67-14.47h48.29a11.94 11.94 0 0 1 11.6 14.76l-10.28 42.24a11.93 11.93 0 0 1-11.62 9.11zM459.73 781.87L430.87 820a11 11 0 0 1-17.85-0.37l-26.22-37.86a11.06 11.06 0 0 1-1.83-8L399.33 658a11 11 0 0 1 10.89-9.3h26.41a11 11 0 0 1 10.89 9.3l14.32 115.54a11 11 0 0 1-2.11 8.33zM556.7 500.11c-9.3-3-21.33-6.5-35.41-10A188.71 188.71 0 0 0 612 329c0-104-84.62-188.63-188.63-188.63S234.71 225 234.71 329a188.69 188.69 0 0 0 91.56 161.68q-14.82 4.66-29.25 10.74A325.48 325.48 0 0 0 98.11 801.5a329.46 329.46 0 0 0 2 36.34 52.52 52.52 0 0 0 50 46.78h159.4a20.91 20.91 0 0 0 20.91-20.91 20.91 20.91 0 0 0-20.91-20.91H159.22A18.34 18.34 0 0 1 141 826q-1-12.15-1-24.5a283.86 283.86 0 0 1 283.81-283.87h4.09c49.11 3.26 92.67 15 116.17 22.46a20.94 20.94 0 0 0 12.63-39.92zM276.52 329c0-81 65.87-146.81 146.82-146.81S570.16 248 570.16 329c0 79.18-63 143.91-141.52 146.71q-10.58-0.65-21.46-0.78C333.8 466.84 276.52 404.49 276.52 329zM890.57 585.39H549.48a37.42 37.42 0 0 0-37.43 37.42v130.88a37.43 37.43 0 0 0 37.43 37.42h148.46a14 14 0 0 0 14-14.05 14 14 0 0 0-14-14H549.48a9.32 9.32 0 0 1-9.32-9.32V622.81a9.32 9.32 0 0 1 9.32-9.32h341.09a9.32 9.32 0 0 1 9.32 9.32v130.88a9.32 9.32 0 0 1-9.32 9.32h-188.7a14 14 0 0 0-14 14 14 14 0 0 0 14 14.05h188.7A37.43 37.43 0 0 0 928 753.69V622.81a37.42 37.42 0 0 0-37.43-37.42zM879.09 847.88a8.44 8.44 0 0 1-8.42 8.43H568.26a8.44 8.44 0 0 1-8.43-8.43V763h-28.1v84.87a36.57 36.57 0 0 0 36.53 36.54h302.41a36.58 36.58 0 0 0 36.53-36.54V763h-28.11zM782.68 569.65a11.25 11.25 0 0 1-11.25-11.24v-5.36a5.88 5.88 0 0 0-5.88-5.88H673.9a5.89 5.89 0 0 0-5.89 5.88v5.36a11.24 11.24 0 0 1-11.24 11.24 11.24 11.24 0 0 1-11.24-11.24v-5.36a28.37 28.37 0 0 1 28.37-28.37h91.65a28.37 28.37 0 0 1 28.37 28.37v5.36a11.24 11.24 0 0 1-11.24 11.24zM242.98 275.33m17.5 0l438.39 0q17.5 0 17.5 17.5l0 0.48q0 17.5-17.5 17.5l-438.39 0q-17.5 0-17.5-17.5l0-0.48q0-17.5 17.5-17.5ZM686.6 690.11m14.02 0l39.24 0q14.02 0 14.02 14.02l0-0.01q0 14.02-14.02 14.02l-39.24 0q-14.02 0-14.02-14.02l0 0.01q0-14.02 14.02-14.02Z" /></svg>