<?xml version="1.0" standalone="no"?><!DOCTYPE svg PUBLIC "-//W3C//DTD SVG 1.1//EN" "http://www.w3.org/Graphics/SVG/1.1/DTD/svg11.dtd"><svg class="icon" width="200px" height="200.00px" viewBox="0 0 1024 1024" version="1.1" xmlns="http://www.w3.org/2000/svg"><path fill="#2c2c2c" d="M908.72832 400.17009776h-55.40181333l4.93226666-101.05400888c1.4336-29.42976-8.69831111-57.10506667-28.53205333-77.92867556-20.44359111-21.46304-48.69575111-33.26862222-79.54887111-33.26862222h-478.04643556c-30.85425778 0-59.09731555 11.80444445-79.55000888 33.26862222-19.83146667 20.82360889-29.96679111 48.49891555-28.53205334 77.92867556l4.94364444 101.05400888h-55.4131911c-46.61930667 0-79.18705778 38.79822222-79.18705778 94.31608889v393.23306667c0 52.1728 29.40928 90.51932445 70.85169778 95.18193778-0.01024 0.33109333-0.09443555 0.61895111-0.09443556 0.90794666 0 19.56636445 15.84014222 35.37351111 35.37351111 35.37351112h88.43264c19.53336889 0 35.37123555-15.80942222 35.37123555-35.3336889h495.24849778c0 19.52540445 15.82990222 35.33368889 35.37351112 35.3336889h88.43264c19.53336889 0 35.37351111-15.80942222 35.3735111-35.37351112 0-0.36977778-0.10467555-0.70314667-0.11264-1.11502222 40.94407111-5.53073778 70.85966222-44.24817778 70.85966223-94.97713778v-393.23306666c-0.00113778-54.64974222-33.97176889-94.31495111-80.77880889-94.31495112zM225.42904889 930.7693511h-111.84696889c-17.94503111 0-26.11768889-22.33002667-26.11768889-43.05009778v-393.23306667c0-19.02933333 6.83235555-41.27630222 26.11768889-41.27630222h107.17184c1.35281778 0 2.65329778 0.32995555 3.97312 0.57685333 15.92206222 2.72384 28.75847111 21.34016 28.75847111 43.29927112 0 0.61781333 0.02161778 1.23790222 0.07281778 1.85685333l16.54215111 231.97240889 13.99239111 199.85521778h-58.66382222zM685.01390222 930.7693511h-347.73788444l-11.14453333-159.20128h370.0167111l-11.1354311 159.20128zM709.72643555 580.75135998c-0.12401778 0.78506667-0.34019555 1.52689778-0.39025777 2.35178667l-9.48451556 135.42513778h-377.43616l-9.51409777-136.00312889c-0.05233778-0.65991111-0.23779555-1.23790222-0.33109334-1.89895111l-6.03704889-84.57329778c-0.47445333-52.46179555-38.04501333-94.976-84.41969777-95.80202667l-5.06538667-103.73688888c-0.72248889-14.75584 4.24163555-28.52181333 13.95143111-38.71744 10.34012445-10.85553778 24.94122667-16.81976889 41.13180444-16.81976889h478.04643556c16.18944 0 30.79168 5.96423111 41.13066666 16.81976889 9.70979555 10.19562667 14.67164445 23.9616 13.95143112 38.71744l-5.05628445 103.73688888c-46.38264889 0.82602667-83.95548445 43.33909333-84.43107555 95.80202667l-6.04728889 84.69731556zM936.43662222 887.71925332c0 21.38112-9.51523555 43.05009778-27.70830222 43.05009778h-170.52103111l12.86826666-183.80003556v-0.04096l17.68561778-247.98663111c0.04209778-0.61781333 0.06257778-1.23790222 0.06257778-1.85685333 0-21.95911111 12.82616889-40.57429333 28.75847111-43.29927112 1.32209778-0.24803555 2.63281778-0.57685333 3.98449778-0.57685333h107.1616c19.14311111 0 27.70830222 20.72007111 27.70830222 41.27630223v393.23306666z" /></svg>