<?xml version="1.0" standalone="no"?><!DOCTYPE svg PUBLIC "-//W3C//DTD SVG 1.1//EN" "http://www.w3.org/Graphics/SVG/1.1/DTD/svg11.dtd"><svg class="icon" width="200px" height="200.00px" viewBox="0 0 1024 1024" version="1.1" xmlns="http://www.w3.org/2000/svg"><path fill="#2c2c2c" d="M875.5 192H519c-46.3 0-83.9 37.5-83.9 83.9v62.9H267.3c-5.7 0-10.9 2.3-14.9 6.1L53.2 544.1c-3.8 4-6.1 9.2-6.1 14.9v178.2c0 34.6 28.3 62.9 62.9 62.9h38.6c9.9 53.5 57 94.4 113.4 94.4s103.6-40.9 113.4-94.4H414c19.1 0 36.3-8.6 48-22.2 14.9 13.8 35 22.2 56.8 22.2h64.8c9.9 53.5 57 94.4 113.4 94.4s103.6-40.9 113.4-94.4h64.8c46.3 0 83.9-37.5 83.9-83.9V275.9c0.2-46.4-37.3-83.9-83.6-83.9zM213.1 454.1h159.1V517h-222l62.9-62.9z m49 398.4c-33.1 0-61.2-22.2-70.2-52.4-2.1-6.7-3.1-13.6-3.1-21 0-7.3 1-14.3 3.1-21 9-30.2 37.1-52.4 70.2-52.4s61.2 22.2 70.2 52.4c2.1 6.7 3.1 13.6 3.1 21 0 7.3-1 14.3-3.1 21-9 30.2-37.1 52.4-70.2 52.4z m173-115.3c0 11.5-9.4 21-21 21h-38.6c-9.9-53.5-57-94.4-113.4-94.4s-103.6 40.9-113.4 94.4h-38.6c-11.5 0-21-9.4-21-21V567.6l8.8-8.8c0.6 0 1.1 0.2 1.6 0.2h293.6c11.6 0 21-9.4 21-21V433.2c0-11.6-9.4-21-21-21H244.5l31.5-31.5h159.2v356.5z m262.1 115.3c-33.1 0-61.2-22.2-70.2-52.4-2.1-6.7-3.1-13.6-3.1-21 0-7.3 1-14.3 3.1-21 9-30.2 37.1-52.4 70.2-52.4s61.2 22.2 70.2 52.4c2.1 6.7 3.1 13.6 3.1 21 0 7.3-1 14.3-3.1 21-9 30.2-37.1 52.4-70.2 52.4z m220.2-136.3c0 23.1-18.9 41.9-41.9 41.9h-64.8c-9.9-53.5-57-94.4-113.4-94.4s-103.6 40.9-113.4 94.4H519c-23.1 0-41.9-18.9-41.9-41.9V275.9c0-23.1 18.9-41.9 41.9-41.9h356.5c23.1 0 41.9 18.9 41.9 41.9v440.3z" /></svg>