<?xml version="1.0" standalone="no"?><!DOCTYPE svg PUBLIC "-//W3C//DTD SVG 1.1//EN" "http://www.w3.org/Graphics/SVG/1.1/DTD/svg11.dtd"><svg class="icon" width="200px" height="200.00px" viewBox="0 0 1024 1024" version="1.1" xmlns="http://www.w3.org/2000/svg"><path fill="#2c2c2c" d="M968.05888 259.26656c0 19.99872-0.48128 40.00768 0.11264 59.98592 0.93184 31.75424-11.20256 57.86624-33.00352 80.0768-20.30592 20.6848-44.75904 35.24608-70.8608 47.23712-4.42368 2.03776-6.13376 4.2496-6.0928 9.43104 0.32768 37.376 0.32768 74.752 0.09216 112.128-0.03072 5.35552 1.69984 7.90528 6.49216 10.11712 29.83936 13.7728 57.5488 30.6688 78.82752 56.4224 16.35328 19.79392 24.76032 42.36288 24.53504 68.3008-0.34816 40.94976-0.54272 81.89952 0.0512 122.83904 0.45056 30.91456-10.87488 56.53504-31.92832 78.37696-23.23456 24.09472-51.78368 40.09984-82.19648 53.02272-48.46592 20.59264-99.33824 32.37888-151.2448 40.02816-64.73728 9.53344-129.81248 12.36992-195.11296 8.4992-79.6672-4.72064-157.97248-16.61952-232.45824-47.01184-29.696-12.11392-57.58976-27.35104-81.05984-49.664-18.19648-17.3056-31.47776-37.5296-35.38944-62.85312-0.9728-6.31808-1.13664-12.8-1.15712-19.21024-0.1024-35.47136-0.2048-70.94272 0.1024-106.41408 0.0512-5.7344-1.90464-8.21248-6.912-10.51648-29.41952-13.53728-56.68864-30.24896-77.80352-55.45984-16.65024-19.87584-25.37472-42.56768-25.14944-68.79232 0.33792-39.28064 1.1264-78.592-0.2048-117.83168-1.3824-40.71424 15.7696-71.50592 45.9776-96.6144 17.69472-14.70464 37.41696-26.12224 58.3168-35.54304 4.22912-1.90464 5.87776-3.9424 5.84704-8.91904-0.28672-44.51328-0.27648-89.0368-0.18432-133.56032 0.07168-36.87424 18.95424-63.92832 46.09024-86.31296 33.64864-27.7504 73.1648-44.04224 114.29888-56.65792 63.60064-19.5072 128.96256-28.47744 195.24608-31.88736 60.07808-3.09248 119.94112-0.78848 179.51744 7.36256C755.01568 34.38592 815.872 48.128 872.72448 75.89888c27.58656 13.47584 52.95104 30.14656 72.35584 54.54848 15.33952 19.29216 23.37792 41.09312 23.04 65.96608C967.8336 217.36448 968.05888 238.32576 968.05888 259.26656zM569.42592 61.25568c-77.27104 0.16384-147.456 6.71744-216.30976 24.53504-35.328 9.13408-69.64224 20.992-101.05856 40.02816-14.96064 9.07264-28.672 19.69152-38.99392 34.05824-15.69792 21.84192-15.69792 45.02528 0.13312 66.816 3.61472 4.97664 7.79264 9.64608 12.26752 13.8752 20.7872 19.61984 45.86496 32.16384 72.18176 42.30144 71.19872 27.42272 145.67424 37.8368 221.32736 41.35936 65.80224 3.06176 131.328-0.19456 196.34176-11.3152 46.53056-7.96672 92.1088-19.3536 134.99392-39.74144 21.18656-10.07616 41.1648-22.00576 56.91392-39.8336 22.43584-25.40544 23.37792-53.93408 0.58368-78.96064-10.55744-11.59168-23.68512-21.34016-36.98688-29.83936-24.1664-15.45216-51.12832-25.10848-78.56128-33.21856C717.44512 69.20192 640.73728 61.6448 569.42592 61.25568zM813.81376 466.54464c-3.4816 0.91136-5.96992 1.47456-8.40704 2.2016-64.41984 19.37408-130.49856 28.25216-197.49888 31.46752-49.32608 2.36544-98.51904 0.74752-147.61984-4.31104-50.9952-5.25312-101.23264-14.39744-150.05696-30.27968-38.42048-12.50304-75.53024-28.03712-106.6496-54.55872-12.17536-10.37312-22.46656-22.95808-34.0992-35.04128-20.20352 6.07232-53.42208 29.99296-66.0992 47.9744-9.03168 12.81024-13.55776 26.78784-10.69056 42.40384 2.67264 14.58176 10.89536 26.19392 21.27872 36.39296 18.49344 18.15552 40.84736 30.24896 64.45056 40.0896 67.81952 28.28288 139.30496 39.45472 212.00896 44.288 53.54496 3.56352 107.06944 2.69312 160.48128-2.82624 52.91008-5.46816 105.0112-14.8992 155.24864-32.8704 31.05792-11.1104 60.928-24.59648 85.32992-47.68768C802.03776 493.824 810.24 482.34496 813.81376 466.54464zM214.91712 735.11936c10.25024 13.1072 22.6304 22.62016 36.0448 30.90432 28.98944 17.89952 60.68224 29.36832 93.31712 38.35904 62.03392 17.09056 125.45024 24.56576 189.62432 26.40896 81.98144 2.34496 163.08224-4.1984 242.62656-25.09824 36.21888-9.5232 71.30112-22.12864 102.93248-42.76224 14.45888-9.43104 27.55584-20.45952 36.52608-35.5328 9.82016-16.49664 11.42784-33.792 2.64192-51.06688-13.91616-27.392-39.00416-41.80992-65.25952-55.57248-13.6192 34.74432-39.61856 56.84224-69.7856 74.83392-30.84288 18.39104-64.24576 30.72-98.68288 40.40704-56.576 15.91296-114.39104 24.09472-172.96384 27.4944-75.84768 4.4032-151.28576 0.9216-226.06848-12.8512C262.33856 746.2912 239.07328 740.43392 214.91712 735.11936zM398.67392 632.832c0 28.5696 0 57.4464 0 87.37792 14.53056 0 28.64128 0 43.13088 0 0-28.6208 0-57.4976 0-87.37792C427.29472 632.832 413.17376 632.832 398.67392 632.832zM617.37984 456.13056c0-29.9008 0-58.75712 0-87.1936-14.592 0-28.71296 0-43.12064 0 0 29.87008 0 58.7264 0 87.1936C588.8 456.13056 602.92096 456.13056 617.37984 456.13056zM551.90528 456.22272c0-27.648 0.0512-55.40864-0.1536-83.15904-0.01024-1.35168-2.28352-3.81952-3.54304-3.85024-13.19936-0.28672-26.40896-0.17408-39.77216-0.17408 0 28.47744 0 57.35424 0 87.18336C522.8032 456.22272 536.75008 456.22272 551.90528 456.22272zM574.16704 961.9456c14.78656 0 28.90752 0 43.23328 0 0-29.80864 0-58.48064 0-86.89664-14.60224 0-28.75392 0-43.23328 0C574.16704 904.67328 574.16704 933.376 574.16704 961.9456zM551.5264 962.22208c0-28.78464 0-57.4464 0-87.11168-14.51008 0-28.63104 0-43.04896 0 0 28.50816 0 57.37472 0 87.11168C522.89536 962.22208 536.87296 962.22208 551.5264 962.22208zM464.57856 720.18944c14.58176 0 28.68224 0 42.83392 0 0-30.11584 0-59.16672 0-87.33696-14.58176 0-28.52864 0-42.83392 0C464.57856 662.75328 464.57856 691.61984 464.57856 720.18944zM485.46816 366.41792c-14.52032-1.44384-28.57984-2.83648-42.79296-4.2496 0 29.48096 0 58.37824 0 87.7568 14.44864 1.49504 28.48768 2.93888 42.79296 4.41344C485.46816 424.45824 485.46816 395.55072 485.46816 366.41792zM530.61632 630.46656c0 29.3888 0 58.24512 0 87.90016 14.65344-1.52576 28.69248-2.99008 42.81344-4.46464 0-29.76768 0-58.66496 0-87.78752C559.08352 627.57888 545.1776 628.992 530.61632 630.46656zM376.15616 718.41792c0-30.03392 0-58.9312 0-87.97184-14.53056-1.4336-28.59008-2.816-43.3152-4.27008 0 28.54912-0.0512 56.34048 0.16384 84.13184 0.01024 1.3312 2.31424 3.6352 3.76832 3.81952C349.71648 715.75552 362.71104 717.0048 376.15616 718.41792zM682.86464 955.92448c0-29.34784 0-58.0608 0-87.67488-14.70464 1.45408-28.93824 2.85696-43.0592 4.2496 0 29.68576 0 58.4192 0 87.95136C654.3872 958.9248 668.49792 957.44 682.86464 955.92448zM485.9392 960.50176c0-28.928 0.0512-56.73984-0.16384-84.55168-0.01024-1.35168-2.28352-3.72736-3.69664-3.88096-12.96384-1.44384-25.97888-2.5088-39.43424-3.72736 0 29.2864 0 58.19392 0 87.57248C456.86784 957.41952 470.77376 958.89408 485.9392 960.50176zM682.69056 449.93536c0-29.5936 0-58.4192 0-87.73632-14.68416 1.46432-28.75392 2.8672-42.83392 4.27008 0 29.5424 0 58.44992 0 87.95136C654.22336 452.9152 668.1088 451.46112 682.69056 449.93536zM267.13088 702.67904c14.58176 2.70336 28.7232 5.31456 43.29472 8.00768 0-29.78816 0-58.63424 0-87.6544-14.52032-2.54976-28.68224-5.03808-43.29472-7.60832C267.13088 644.73088 267.13088 673.15712 267.13088 702.67904zM705.7408 865.08544c0 29.1328 0 57.97888 0 87.64416 14.76608-2.7648 28.94848-5.41696 43.1616-8.06912 0-29.46048 0-58.14272 0-87.27552C734.32064 859.98592 720.13824 862.5152 705.7408 865.08544zM376.92416 857.40544c0 29.27616 0 57.97888 0 87.31648 14.32576 2.6624 28.48768 5.28384 43.17184 8.00768 0-29.85984 0-58.70592 0-87.61344C405.63712 862.54592 391.65952 860.03712 376.92416 857.40544zM639.0784 702.73024c0-29.34784 0-58.05056 0-87.296-14.6432 2.60096-28.86656 5.13024-43.2128 7.69024 0 29.14304 0 57.856 0 87.59296C610.56 708.00384 624.71168 705.39264 639.0784 702.73024zM420.27008 359.09632c-14.73536-2.6112-28.88704-5.12-43.22304-7.64928 0 29.47072 0 58.18368 0 87.33696 14.4384 2.63168 28.55936 5.20192 43.22304 7.87456C420.27008 416.7168 420.27008 388.21888 420.27008 359.09632zM748.75904 438.65088c0-29.45024 0-58.112 0-87.28576-14.73536 2.63168-28.90752 5.16096-43.0592 7.69024 0 29.22496 0 57.92768 0 87.6032C720.45568 443.92448 734.6176 441.28256 748.75904 438.65088zM310.8352 334.1824c0 28.1088-0.03072 55.20384 0.08192 82.28864 0.01024 1.34144 0.95232 3.56352 1.95584 3.8912 13.58848 4.46464 27.25888 8.66304 41.46176 13.09696 0-30.04416 0-58.5216 0-87.11168C339.94752 342.33344 325.82656 338.3808 310.8352 334.1824zM814.6944 334.19264c-15.36 4.3008-29.42976 8.2432-43.32544 12.14464 0 29.00992 0 57.61024 0 86.9888 12.24704-3.67616 23.72608-7.50592 35.4304-10.48576 6.59456-1.67936 8.46848-4.99712 8.05888-11.54048-0.60416-9.472-0.1536-19.01568-0.1536-28.53888C814.6944 366.87872 814.6944 350.98624 814.6944 334.19264zM354.27328 939.4688c0-30.07488 0-58.54208 0-87.08096-14.44864-4.05504-28.55936-8.00768-43.42784-12.17536 0 27.9552-0.04096 55.4496 0.14336 82.944 0.01024 1.32096 1.792 3.38944 3.1744 3.82976C327.17824 931.21536 340.29568 935.168 354.27328 939.4688zM661.4016 697.58976c14.46912-4.46464 27.43296-8.25344 40.20224-12.63616 1.7408-0.59392 3.49184-4.11648 3.52256-6.2976 0.27648-19.28192 0.16384-38.57408 0.16384-57.856 0-7.30112 0-14.592 0-22.4768-14.14144 3.84-27.4432 7.28064-40.59136 11.24352-1.54624 0.47104-3.11296 3.84-3.14368 5.87776-0.256 16.66048-0.14336 33.3312-0.14336 50.00192C661.39136 675.6352 661.4016 685.83424 661.4016 697.58976zM201.40032 598.25152c0 28.29312-0.03072 55.58272 0.11264 82.86208 0.01024 1.2288 1.40288 3.19488 2.54976 3.56352 13.4144 4.37248 26.90048 8.4992 40.73472 12.81024 0-29.89056 0-58.5216 0-87.13216C230.49216 606.3616 216.60672 602.49088 201.40032 598.25152zM771.11296 939.50976c13.28128-4.06528 25.4464-8.01792 37.74464-11.43808 4.90496-1.36192 5.98016-3.96288 5.9392-8.69376-0.22528-24.23808-0.09216-48.4864-0.13312-72.73472 0-1.9968-0.33792-3.9936-0.54272-6.25664-14.76608 4.13696-28.83584 8.06912-43.008 12.04224C771.11296 881.26464 771.11296 909.73184 771.11296 939.50976zM289.21856 412.66176c0-29.37856 0.04096-55.99232-0.1024-82.59584-0.01024-1.51552-1.09568-3.87072-2.31424-4.41344-13.55776-6.10304-27.24864-11.9296-41.54368-18.10432 0 26.27584-0.03072 52.10112 0.08192 77.9264 0.01024 1.41312 0.8704 3.50208 1.97632 4.12672C260.66944 397.11744 274.14528 404.41856 289.21856 412.66176zM726.8352 676.48512c14.25408-7.64928 26.83904-14.49984 39.53664-21.1456 3.67616-1.92512 4.59776-4.608 4.56704-8.57088-0.16384-23.27552-0.07168-46.5408-0.1024-69.81632 0-1.72032-0.34816-3.4304-0.54272-5.24288-13.16864 5.74464-25.66144 11.43808-38.36928 16.57856-3.97312 1.60768-5.21216 3.61472-5.18144 7.7824 0.18432 23.51104 0.09216 47.02208 0.09216 70.53312C726.8352 669.09184 726.8352 671.60064 726.8352 676.48512zM836.66944 918.34368c13.99808-7.51616 26.624-14.3872 39.36256-21.06368 3.66592-1.92512 4.70016-4.56704 4.66944-8.58112-0.17408-23.28576-0.07168-46.58176-0.11264-69.87776 0-1.71008-0.36864-3.42016-0.5632-5.0688-13.62944 5.86752-26.76736 11.32544-39.65952 17.29536-1.82272 0.83968-3.4816 4.15744-3.5328 6.36928-0.31744 13.7728-0.16384 27.56608-0.16384 41.34912C836.66944 891.27936 836.66944 903.80288 836.66944 918.34368zM245.248 813.57824c0 2.79552 0 5.07904 0 7.36256 0 18.5344 1.25952 37.19168-0.39936 55.57248-1.34144 14.81728 4.16768 22.82496 17.08032 28.09856 9.03168 3.6864 17.6128 8.4992 27.27936 13.23008 0-28.33408 0.0512-54.9376-0.12288-81.54112-0.01024-1.65888-1.40288-4.18816-2.82624-4.82304C272.93696 825.43616 259.46112 819.72224 245.248 813.57824zM836.67968 412.48768C851.6096 404.2752 865.28 396.91264 878.70464 389.12c1.3824-0.79872 1.82272-4.12672 1.83296-6.27712 0.12288-23.51104 0.08192-47.02208 0.06144-70.53312 0-1.51552-0.28672-3.03104-0.44032-4.64896-13.824 5.94944-27.10528 11.56096-40.26368 17.46944-1.46432 0.65536-3.072 3.00032-3.08224 4.57728C836.62848 356.5056 836.67968 383.31392 836.67968 412.48768zM136.38656 571.88352c-0.3584 0.57344-0.77824 0.94208-0.77824 1.31072-0.07168 25.21088-0.14336 50.42176-0.08192 75.63264 0 1.46432 0.64512 3.67616 1.71008 4.29056 13.48608 7.68 27.10528 15.12448 42.1376 23.41888 0-29.3376 0.03072-56.1664-0.09216-82.9952-0.01024-1.35168-0.95232-3.45088-2.01728-3.93216C163.69664 583.55712 150.00576 577.7408 136.38656 571.88352zM223.21152 874.17856c0-23.68512 0.02048-47.36-0.0512-71.04512 0-1.32096-0.34816-3.1744-1.24928-3.86048-6.4512-4.93568-13.07648-9.63584-20.29568-14.88896 0 17.95072-0.65536 34.77504 0.18432 51.52768C202.58816 851.54816 211.00544 863.8976 223.21152 874.17856zM792.832 632.24832c13.63968-11.90912 21.72928-25.94816 21.94432-43.63264 0.12288-9.984 0.03072-19.968 0.03072-29.952 0-5.09952 0-10.20928 0-16.5376-6.81984 4.95616-12.61568 8.66304-17.74592 13.11744-2.12992 1.85344-3.97312 5.29408-4.0448 8.06912-0.38912 14.97088-0.18432 29.952-0.18432 44.93312C792.832 616.2432 792.832 624.24064 792.832 632.24832zM202.28096 278.74304c0 19.10784-1.05472 37.59104 0.34816 55.88992 1.05472 13.71136 9.59488 24.58624 20.56192 35.79904 0-25.97888 0.0512-49.8688-0.11264-73.74848-0.01024-1.55648-1.32096-3.55328-2.63168-4.57728C214.66112 287.61088 208.66048 283.392 202.28096 278.74304zM923.82208 784.47616c-6.4 4.6592-12.17536 8.37632-17.3056 12.84096-2.12992 1.8432-4.03456 5.25312-4.08576 7.9872-0.3584 18.3296-0.18432 36.6592-0.18432 54.9888 0 4.864 0 9.728 0 16.49664 11.75552-12.3904 20.50048-24.34048 21.36064-39.70048C924.55936 820.0192 923.82208 802.85696 923.82208 784.47616zM92.22144 542.53568c0 18.26816-0.74752 35.36896 0.21504 52.38784 0.88064 15.48288 9.56416 27.56608 21.3504 39.65952 0-25.97888 0.02048-50.11456-0.07168-74.25024 0-1.19808-0.8192-2.78528-1.77152-3.50208C105.74848 552.17152 99.40992 547.70688 92.22144 542.53568zM923.79136 278.45632c-6.35904 4.64896-12.10368 8.37632-17.22368 12.81024-2.11968 1.83296-4.08576 5.19168-4.12672 7.8848-0.32768 21.83168-0.19456 43.66336-0.1536 65.49504 0 1.46432 0.41984 2.93888 0.69632 4.82304 11.65312-10.94656 20.20352-25.48736 20.65408-37.89824C924.25216 314.28608 923.79136 296.97024 923.79136 278.45632z" /></svg>