<?xml version="1.0" standalone="no"?><!DOCTYPE svg PUBLIC "-//W3C//DTD SVG 1.1//EN" "http://www.w3.org/Graphics/SVG/1.1/DTD/svg11.dtd"><svg class="icon" width="200px" height="200.00px" viewBox="0 0 1024 1024" version="1.1" xmlns="http://www.w3.org/2000/svg"><path fill="#2c2c2c" d="M226.276 799.646c10.362 16.882 40.582 65.09 62.757 100.46 13.41 21.363 23.865 38.036 25.175 40.228 6.384 10.716 17.14 17.1 29.703 17.48h0.876c11.813 0 23.573-5.57 35.348-17.027 27.496-32.153 26.804-48.11 26.474-55.78l-0.05-1.621c0.2-8.24 0.156-28.51 0.108-51.134-0.074-26.368-0.146-56.114 0.166-73.527l103.771-99.861c29.737 81.596 88.54 240.265 92.591 250.842 8.56 21.722 25.545 25.53 32.426 26.177 13.804 1.236 28.222-4.407 39.904-16.078 1.636-1.739 40.125-42.73 56.866-63.117 18.47-22.22 17.675-41.99 17.34-50.399-0.05-2.692-2.932-50.563-8.016-134.969-4.826-79.816-10.586-175.634-13.707-229.787L907.28 262.227c43.97-43.835 50.53-89.495 50.52-112.824 0-25.744-7.553-48.635-20.174-61.184-12.53-12.601-36.418-20.436-62.352-20.436-23.286 0-68.85 6.491-112.42 49.994L583.747 296.973c-46.345-2.942-123.111-7.943-194.513-12.597-90.829-5.931-169.27-11.04-172.795-11.127a82.901 82.901 0 0 0-4.5-0.116c-16.341 0-31.153 5.677-45.256 17.374-20.316 16.814-61.388 55.409-63.268 57.186-11.54 11.598-17.355 26.124-15.97 39.904 0.904 8.624 5.55 24.269 26.27 32.343 10.05 3.944 168.792 63.365 252.868 94.364l-99.934 103.09c-4.253 0.047-9.127 0.33-14.803 0.047-18.422 0-42.526-0.335-63.77-0.643-21.971-0.312-40.728-0.618-47.482-0.384l0.24 6.1-1.799-6.1-1.44-0.02c-10.04 0-25.239 3.074-54.13 27.269l-2.57 2.406c-11.648 11.715-14.384 23.48-14.637 31.295-0.39 11.789 4.562 22.41 13.877 29.89 6.477 5.264 83.764 54.591 146.141 92.392z m26.518-40.971c-52.204-31.604-108.211-67.184-131.83-82.619 10.83-8.385 16.22-10.504 17.448-10.908l8.838-0.024c8.145 0 21.196 0.189 36.024 0.38l4.104 0.073c29.49 0.429 64.442 0.926 82.746 0.546 11.335-0.239 21.912-4.835 29.79-12.977L408.119 541.52c10.099-10.397 14.195-25.06 10.98-39.195-3.224-14.145-13.278-25.568-26.889-30.57-70.464-25.9-209.637-77.93-250.296-93.293 12.126-11.31 40.917-38.01 55.876-50.398 7.456-6.154 11.98-6.154 14.146-6.154 0.789 0 1.499 0.023 2.619 0.082 6.076 0.263 93.959 5.99 171.51 11.054 72.857 4.751 151.302 9.86 197.362 12.786 12.354 0.833 24.186-3.725 32.884-12.418l180.994-181.13c31.144-31.082 62.226-35.727 77.969-35.727 17.363 0 26.84 5.24 27.867 6.144 7.606 7.762 16.172 58.648-30.347 105.023L691.58 408.974c-8.583 8.6-13.122 20.48-12.417 32.621 2.927 51.299 8.454 142.955 13.216 221.908l0.643 10.79c3.457 57.231 7.767 128.47 7.98 133.9 0.2 5.311 0.37 9.505-6.301 17.529-12.168 14.836-38 42.754-50.03 55.661-14.836-39.845-66.34-178.96-91.42-248.008-4.943-13.624-16.338-23.699-30.45-26.986-13.906-3.239-28.914 0.881-39.251 10.815L371.204 725.309c-8.196 7.909-12.836 18.51-13.089 29.845-0.365 17.695-0.298 49.304-0.224 78.047 0.048 21.367 0.092 41.394-0.097 49.234-0.025 1.354 0 2.902 0.238 4.359 0 0.044-1.285 5.093-9.743 16.006l-17.91-28.583c-22.722-36.248-53.852-85.887-63.283-101.292-3.545-5.816-8.501-10.72-14.302-14.25z m0 0"  /></svg>