<?xml version="1.0" standalone="no"?><!DOCTYPE svg PUBLIC "-//W3C//DTD SVG 1.1//EN" "http://www.w3.org/Graphics/SVG/1.1/DTD/svg11.dtd"><svg class="icon" width="200px" height="170.10px" viewBox="0 0 1204 1024" version="1.1" xmlns="http://www.w3.org/2000/svg"><path fill="#2c2c2c" d="M1191.695059 590.607059a185.645176 185.645176 0 0 0-108.363294-154.202353l-54.693647-262.324706C1008.579765 78.185412 914.130824 0.120471 817.935059 0.120471H386.891294c-96.195765 0-190.704941 78.004706-210.703059 173.959529l-54.753882 262.324706a185.645176 185.645176 0 0 0-108.303059 154.202353L0.722824 758.964706c-5.300706 72.282353 34.996706 137.456941 98.304 163.84 14.576941 58.127059 65.957647 100.532706 126.795294 100.532706 56.560941 0 104.688941-36.020706 123.00047-87.94353h507.181177a130.228706 130.228706 0 0 0 122.940235 87.94353c60.837647 0 112.338824-42.405647 126.855529-100.532706 63.247059-26.383059 103.604706-91.557647 98.243765-163.84l-12.348235-168.297412z m-127.096471 266.962823a37.345882 37.345882 0 0 0-28.370823 34.69553 57.946353 57.946353 0 0 1-57.22353 55.898353 57.584941 57.584941 0 0 1-57.042823-53.669647 37.044706 37.044706 0 0 0-36.683294-34.213647H319.488a37.104941 37.104941 0 0 0-36.683294 34.213647 57.584941 57.584941 0 0 1-56.982588 53.669647 57.946353 57.946353 0 0 1-57.22353-55.898353 37.345882 37.345882 0 0 0-28.431059-34.69553c-42.164706-9.999059-69.270588-48.248471-66.017882-93.063529L86.558118 596.329412c3.192471-43.730824 35.538824-83.425882 78.667294-96.496941a37.406118 37.406118 0 0 0 26.021647-31.503059l0.602353-6.445177c0-1.084235 0-2.228706 0.240941-3.252706L248.169412 189.741176c12.950588-62.102588 76.498824-114.507294 138.721882-114.507294h431.043765c62.223059 0 125.711059 52.404706 138.721882 114.447059l56.018824 268.890353c0.240941 1.084235 0.240941 2.228706 0.361411 3.312941 0.120471 2.108235 0.301176 4.216471 0.542118 6.264471a37.345882 37.345882 0 0 0 26.081882 31.623529c43.068235 13.071059 75.414588 52.766118 78.607059 96.496941l12.408471 168.237177c3.312941 44.754824-23.853176 83.064471-66.017882 93.063529zM318.885647 471.823059h567.115294a41.200941 41.200941 0 0 0 32.64753-14.034824 43.550118 43.550118 0 0 0 8.914823-35.358117l-0.542118-2.710589-44.574117-197.451294c-5.541647-31.141647-35.779765-57.103059-66.861177-57.103059H389.300706c-31.081412 0-61.379765 25.961412-66.921412 57.103059l-44.574118 197.451294a43.188706 43.188706 0 0 0 7.890824 37.526589 41.562353 41.562353 0 0 0 33.129412 14.576941z m75.053177-231.604706h417.069176l35.297882 156.551529H358.520471l35.358117-156.551529z m-119.386353 360.207059c-45.959529 0-83.184941 38.008471-83.184942 84.871529s37.225412 84.811294 83.124706 84.811294c46.019765 0 83.245176-37.948235 83.245177-84.811294 0-46.863059-37.225412-84.871529-83.184941-84.871529z m655.841882 0c-45.959529 0-83.184941 38.008471-83.184941 84.871529s37.225412 84.811294 83.184941 84.811294 83.184941-37.948235 83.184941-84.811294c0-46.863059-37.225412-84.871529-83.184941-84.871529z"  /></svg>