<?xml version="1.0" standalone="no"?><!DOCTYPE svg PUBLIC "-//W3C//DTD SVG 1.1//EN" "http://www.w3.org/Graphics/SVG/1.1/DTD/svg11.dtd"><svg t="1597222250905" class="icon" viewBox="0 0 1024 1024" version="1.1" xmlns="http://www.w3.org/2000/svg" p-id="12740" xmlns:xlink="http://www.w3.org/1999/xlink" width="200" height="200"><defs><style type="text/css"></style></defs><path d="M900.05 259.13Q840.11 169 736.87 116.5T512 64q-121.63 0-224.87 52.5T124 259.13Q64 349.27 64 456q0 91 45.05 171T232 761.37V960l196-119a520.41 520.41 0 0 0 84 7q121.64 0 224.87-52.5t163.18-142.63Q960 562.73 960 456t-59.95-196.87z m-128.12 421.6Q664.29 773 511.55 773.05a415.48 415.48 0 0 1-88.71-9.85l-124 74.68 1.65-122.26q-72.29-43.47-114.58-111.17T143.55 458q0-85.35 49.28-158t133.9-114.88q84.61-42.24 184.82-42.24 152.79 0 260.38 92.32T879.55 458q0.02 130.4-107.62 222.73z" fill="#2c2c2c" p-id="12741"></path><path d="M735.82 399.84q-22.76 0-39.36 16.63t-16.64 39.37q0 22.74 16.64 39.37t39.36 16.63q22.71 0 39.37-16.63t16.63-39.37q0-22.72-16.63-39.37t-39.37-16.63zM288.18 399.84q-22.77 0-39.38 16.63t-16.62 39.37q0 22.74 16.62 39.37t39.38 16.63q22.69 0 39.36-16.63t16.64-39.37q0-22.72-16.64-39.37t-39.36-16.63zM512 399.84q-22.75 0-39.37 16.63T456 455.84q0 22.74 16.63 39.37T512 511.84q22.71 0 39.37-16.63T568 455.84q0-22.72-16.63-39.37T512 399.84z" fill="#2c2c2c" p-id="12742"></path></svg>