<?xml version="1.0" standalone="no"?><!DOCTYPE svg PUBLIC "-//W3C//DTD SVG 1.1//EN" "http://www.w3.org/Graphics/SVG/1.1/DTD/svg11.dtd"><svg t="1597222277469" class="icon" viewBox="0 0 1024 1024" version="1.1" xmlns="http://www.w3.org/2000/svg" p-id="13529" xmlns:xlink="http://www.w3.org/1999/xlink" width="200" height="200"><defs><style type="text/css"></style></defs><path d="M880.5 482.1c-1.2-24.5-16.1-45.1-39.1-53.8l-616-232.8c-21.1-8-44.7-3.6-61.6 11.4s-24 37.9-18.6 59.9l128.9 519.6c4.6 18.6 17.3 33.5 34.9 41.1 7.7 3.3 15.9 5 24 5 10.3 0 20.5-2.7 29.8-7.9L517.2 737c7.9-4.5 17.8-3.1 24.2 3.3l35.8 35.8c14.4 14.4 34.9 20.6 54.8 16.5 19.9-4 36.4-17.7 44.1-36.6l64.6-159c1.9-4.6 5.4-8.4 9.8-10.5l96.2-47.1c22-10.8 35-32.8 33.8-57.3z m-51.6 21l-96.2 47.1c-7.9 3.9-14.8 9.4-20.3 16.1L338.1 352.4c-10.2-5.8-20.4 7.4-12.2 15.8l236.9 242.7c1 1 1.8 2.2 2.3 3.6l50.6 138.4c-3.6-0.8-7-2.7-9.8-5.5l-35.8-35.8c-11.6-11.6-27.2-17.7-42.9-17.7-10.2 0-20.5 2.6-29.8 7.9L343 789.4c-5.5 3.1-12.1 3.5-17.9 1-5.9-2.5-10.1-7.5-11.6-13.7L184.4 257.1c-2.7-10.7 3.4-17.5 6.2-20 2.7-2.4 10.2-7.7 20.5-3.8l616.1 232.8c11.5 4.4 12.9 14.8 13 17.9 0.1 3.1-0.2 13.7-11.3 19.1z" p-id="13530" fill="#2c2c2c"></path></svg>