<?xml version="1.0" standalone="no"?><!DOCTYPE svg PUBLIC "-//W3C//DTD SVG 1.1//EN" "http://www.w3.org/Graphics/SVG/1.1/DTD/svg11.dtd"><svg t="1597222175676" class="icon" viewBox="0 0 1024 1024" version="1.1" xmlns="http://www.w3.org/2000/svg" p-id="11124" xmlns:xlink="http://www.w3.org/1999/xlink" width="200" height="200"><defs><style type="text/css"></style></defs><path d="M512 102.4C286.72 102.4 102.4 286.72 102.4 512s184.32 409.6 409.6 409.6 409.6-184.32 409.6-409.6S737.28 102.4 512 102.4z m0 778.24c-202.752 0-368.64-165.888-368.64-368.64S309.248 143.36 512 143.36s368.64 165.888 368.64 368.64-165.888 368.64-368.64 368.64z" fill="#333333" p-id="11125"></path><path d="M563.2 595.968c-6.144-14.336-20.48-22.528-36.864-22.528h-26.624c-16.384 0-30.72 8.192-36.864 22.528l-57.344 114.688c-6.144 12.288-8.192 24.576-10.24 36.864-4.096 55.296 36.864 106.496 92.16 110.592 8.192 0 16.384 2.048 24.576 2.048s16.384 0 24.576-2.048c12.288-2.048 24.576-4.096 36.864-10.24 24.576-12.288 43.008-32.768 51.2-59.392s6.144-53.248-4.096-77.824l-57.344-114.688z m22.528 180.224c-6.144 16.384-16.384 28.672-30.72 34.816-6.144 4.096-14.336 6.144-22.528 6.144-14.336 2.048-28.672 2.048-40.96 0-32.768-2.048-59.392-32.768-55.296-65.536 0-8.192 2.048-14.336 6.144-22.528l57.344-114.688h26.624l57.344 114.688c6.144 16.384 8.192 32.768 2.048 47.104zM745.472 518.144l-106.496-6.144 106.496-6.144c12.288 0 24.576-4.096 36.864-10.24 24.576-12.288 43.008-32.768 53.248-57.344 10.24-26.624 8.192-53.248-4.096-77.824-4.096-8.192-8.192-14.336-10.24-22.528-4.096-6.144-8.192-14.336-12.288-20.48-8.192-10.24-16.384-18.432-26.624-26.624-22.528-14.336-49.152-20.48-77.824-14.336-26.624 6.144-49.152 20.48-65.536 43.008l-71.68 106.496c-8.192 12.288-10.24 28.672-2.048 43.008l14.336 24.576c6.144 10.24 14.336 16.384 24.576 18.432-10.24 2.048-18.432 10.24-24.576 18.432l-14.336 24.576c-8.192 14.336-8.192 30.72 2.048 43.008l71.68 106.496c6.144 10.24 16.384 20.48 26.624 26.624 18.432 12.288 38.912 18.432 59.392 18.432 32.768 0 63.488-14.336 83.968-43.008 4.096-6.144 8.192-14.336 12.288-20.48 4.096-6.144 8.192-14.336 10.24-22.528 6.144-12.288 8.192-24.576 10.24-36.864 2.048-26.624-6.144-53.248-24.576-73.728-18.432-20.48-45.056-32.768-71.68-34.816z m-73.728-176.128c8.192-14.336 22.528-22.528 38.912-26.624 4.096 0 8.192-2.048 12.288-2.048 12.288 0 24.576 4.096 34.816 10.24 6.144 4.096 12.288 10.24 16.384 16.384 4.096 6.144 8.192 12.288 10.24 18.432 4.096 6.144 6.144 12.288 10.24 18.432 6.144 14.336 8.192 30.72 2.048 47.104s-16.384 28.672-32.768 34.816c-6.144 4.096-14.336 4.096-22.528 6.144l-126.976 8.192-14.336-24.576 71.68-106.496z m122.88 305.152c-2.048 6.144-6.144 12.288-10.24 18.432-4.096 6.144-6.144 12.288-10.24 18.432-18.432 28.672-57.344 34.816-86.016 14.336-6.144-4.096-12.288-10.24-16.384-16.384l-71.68-106.496 14.336-24.576 129.024 8.192c34.816 2.048 59.392 30.72 57.344 65.536-2.048 8.192-2.048 16.384-6.144 22.528zM458.752 555.008l-14.336-24.576c-6.144-10.24-14.336-16.384-24.576-18.432 10.24-2.048 18.432-10.24 24.576-18.432l14.336-24.576c8.192-14.336 8.192-30.72-2.048-43.008l-71.68-106.496c-14.336-22.528-38.912-38.912-65.536-43.008-26.624-6.144-53.248 0-77.824 14.336-10.24 6.144-20.48 16.384-26.624 26.624-4.096 6.144-8.192 14.336-12.288 20.48-4.096 6.144-8.192 14.336-10.24 22.528-12.288 24.576-12.288 53.248-4.096 77.824 10.24 26.624 28.672 47.104 53.248 57.344 12.288 6.144 24.576 8.192 36.864 10.24l106.496 6.144-106.496 6.144c-26.624 2.048-53.248 14.336-69.632 34.816-18.432 20.48-26.624 47.104-24.576 73.728 0 12.288 4.096 24.576 10.24 36.864 4.096 8.192 8.192 14.336 10.24 22.528 4.096 6.144 8.192 14.336 12.288 20.48 20.48 28.672 51.2 43.008 83.968 43.008 20.48 0 40.96-6.144 59.392-18.432 10.24-8.192 18.432-16.384 26.624-26.624l71.68-106.496c6.144-12.288 8.192-30.72 0-43.008z m-198.656-96.256c-14.336-6.144-26.624-18.432-32.768-34.816s-4.096-32.768 2.048-47.104c2.048-6.144 6.144-12.288 10.24-18.432 4.096-6.144 6.144-12.288 10.24-18.432 4.096-6.144 10.24-12.288 16.384-16.384 10.24-6.144 22.528-10.24 34.816-10.24 4.096 0 8.192 0 12.288 2.048 16.384 4.096 30.72 12.288 38.912 26.624l71.68 106.496-14.336 24.576-129.024-8.192c-6.144-2.048-14.336-4.096-20.48-6.144z m92.16 223.232c-4.096 6.144-10.24 12.288-16.384 16.384-28.672 18.432-65.536 12.288-86.016-14.336-4.096-6.144-8.192-12.288-10.24-18.432-4.096-6.144-6.144-12.288-10.24-18.432-4.096-6.144-4.096-14.336-6.144-22.528-2.048-34.816 22.528-63.488 57.344-65.536l129.024-8.192 14.336 24.576-71.68 106.496zM460.8 428.032c6.144 14.336 20.48 22.528 36.864 22.528h26.624c16.384 0 30.72-8.192 36.864-22.528l57.344-114.688c6.144-12.288 8.192-24.576 10.24-36.864 4.096-55.296-36.864-106.496-92.16-110.592-16.384-2.048-32.768-2.048-49.152 0-12.288 2.048-24.576 4.096-36.864 10.24-51.2 24.576-71.68 86.016-47.104 137.216l57.344 114.688z m8.192-217.088c6.144-4.096 14.336-6.144 22.528-6.144h40.96c32.768 2.048 59.392 32.768 55.296 65.536 0 8.192-2.048 14.336-6.144 22.528L526.336 409.6h-26.624l-57.344-114.688c-16.384-30.72-4.096-67.584 26.624-83.968z" fill="#333333" p-id="11126"></path><path d="M765.952 587.776l-38.912-10.24c-10.24-2.048-22.528 4.096-24.576 14.336s4.096 22.528 14.336 24.576l38.912 10.24c10.24 2.048 22.528-4.096 24.576-14.336s-4.096-20.48-14.336-24.576zM698.368 628.736c-8.192-8.192-20.48-8.192-28.672 0-8.192 8.192-8.192 20.48 0 28.672l30.72 28.672c8.192 8.192 20.48 8.192 28.672 0s8.192-20.48 0-28.672l-30.72-28.672zM315.392 401.408l-40.96-8.192c-10.24-2.048-22.528 4.096-24.576 16.384-2.048 10.24 4.096 22.528 16.384 24.576l40.96 8.192c10.24 2.048 22.528-4.096 24.576-16.384 0-10.24-6.144-22.528-16.384-24.576zM307.2 339.968c-8.192-6.144-22.528-4.096-28.672 4.096-6.144 8.192-4.096 22.528 4.096 28.672l32.768 24.576c8.192 6.144 22.528 4.096 28.672-4.096 6.144-8.192 4.096-22.528-4.096-28.672L307.2 339.968z" fill="#333333" p-id="11127"></path></svg>