<?xml version="1.0" standalone="no"?><!DOCTYPE svg PUBLIC "-//W3C//DTD SVG 1.1//EN" "http://www.w3.org/Graphics/SVG/1.1/DTD/svg11.dtd"><svg class="icon" width="200px" height="200.00px" viewBox="0 0 1024 1024" version="1.1" xmlns="http://www.w3.org/2000/svg"><path fill="#2c2c2c" d="M617.8 156.8c-177.9 0-312.1 61-312.1 141.9H98l102.1 255.2L97.6 800h224.6c41 56.2 154.5 94.6 295.6 94.6 177.9 0 312.1-61 312.1-141.9v-454c0-80.9-134.2-141.9-312.1-141.9z m0 37.9c161.6 0 274.3 54.8 274.3 104s-112.6 104-274.3 104-274.3-54.8-274.3-104 112.6-104 274.3-104zM305.6 762.1H154.3L241 554.2l-87.1-217.7h151.8v425.6z m312.2 94.6c-161.6 0-274.3-54.8-274.3-104V368.5c52 43.7 152.9 72.1 274.3 72.1s222.3-28.4 274.3-72.1v384.2c-0.1 49.2-112.7 104-274.3 104z"  /><path fill="#2c2c2c" d="M617.8 364.9c61.1 0 123-22.7 123-66.2s-61.9-66.2-123-66.2-123 22.7-123 66.2 61.9 66.2 123 66.2z m0-94.6c55.3 0 85.1 20.1 85.1 28.4 0 8.2-29.8 28.4-85.1 28.4s-85.1-20.1-85.1-28.4c-0.1-8.2 29.8-28.4 85.1-28.4z"  /></svg>