<?xml version="1.0" standalone="no"?><!DOCTYPE svg PUBLIC "-//W3C//DTD SVG 1.1//EN" "http://www.w3.org/Graphics/SVG/1.1/DTD/svg11.dtd"><svg class="icon" width="200px" height="200.00px" viewBox="0 0 1024 1024" version="1.1" xmlns="http://www.w3.org/2000/svg"><path fill="#2c2c2c" d="M942.08 580.096c0-76.288-39.424-147.968-102.912-188.928C829.44 219.136 686.592 81.92 512 81.92c-174.592 0-317.44 137.216-327.168 309.248-63.488 41.472-102.912 112.64-102.912 188.928 0 93.696 58.368 177.664 144.896 210.432l-41.472 124.416c-3.584 10.752 2.048 22.528 12.8 26.112 2.048 0.512 4.096 1.024 6.656 1.024 8.704 0 16.384-5.632 19.456-13.824l48.128-143.872c1.536-5.12 1.536-11.264-1.536-15.872-2.56-5.12-7.168-8.704-12.8-10.24-79.36-22.016-135.168-95.232-135.168-178.176 0-53.248 23.552-103.936 62.976-138.752 12.288 126.464 97.792 235.52 218.624 277.504l-65.536 196.096c-3.584 10.752 2.048 22.528 12.8 26.112 2.048 0.512 4.096 1.024 6.656 1.024 8.704 0 16.384-5.632 19.456-13.824l72.192-216.064c1.536-5.12 1.536-11.264-1.536-15.872-2.56-5.12-7.168-8.704-12.8-10.24C311.808 651.776 225.28 538.112 225.28 409.6c0-158.208 128.512-286.72 286.72-286.72s286.72 128.512 286.72 286.72c0 128.512-86.528 242.176-210.432 276.48-5.632 1.536-10.24 5.12-12.8 10.24s-3.072 10.752-1.536 15.872l72.192 216.064c3.584 10.752 15.36 16.384 26.112 12.8 10.752-3.584 16.384-15.36 12.8-26.112L619.52 718.848c120.32-41.984 205.824-151.04 218.112-277.504 39.424 34.816 62.976 85.504 62.976 138.752 0 82.944-55.808 155.648-135.168 177.664-5.632 1.536-10.24 5.12-12.8 10.24s-3.072 10.752-1.536 15.872l48.128 143.872c3.072 8.704 10.752 13.824 19.456 13.824 2.048 0 4.096-0.512 6.656-1.024 10.752-3.584 16.384-15.36 12.8-26.112l-41.472-124.416c87.04-32.256 145.408-115.712 145.408-209.92zM660.48 435.2c0-11.264-9.216-20.48-20.48-20.48s-20.48 9.216-20.48 20.48c0 59.392-48.128 107.52-107.52 107.52s-107.52-48.128-107.52-107.52c0-11.264-9.216-20.48-20.48-20.48s-20.48 9.216-20.48 20.48c0 81.92 66.56 148.48 148.48 148.48s148.48-66.56 148.48-148.48z" /></svg>