<?xml version="1.0" standalone="no"?><!DOCTYPE svg PUBLIC "-//W3C//DTD SVG 1.1//EN" "http://www.w3.org/Graphics/SVG/1.1/DTD/svg11.dtd"><svg class="icon" width="200px" height="200.00px" viewBox="0 0 1024 1024" version="1.1" xmlns="http://www.w3.org/2000/svg"><path fill="#2c2c2c" d="M511.986278 350.947713a161.052287 161.052287 0 1 1-161.052287 161.093452 161.23067 161.23067 0 0 1 161.052287-161.093452m0-52.636669a213.675234 213.675234 0 1 0 213.675234 213.730121A213.675234 213.675234 0 0 0 511.986278 298.311044z"  /><path fill="#2c2c2c" d="M574.612387 52.636668a9.275909 9.275909 0 0 1 9.275909 9.275909c0 63.216145 51.580093 114.645298 114.97462 114.645298a113.341731 113.341731 0 0 0 80.546727-33.632031 9.262187 9.262187 0 0 1 13.10428 0l88.560233 88.560233a9.289631 9.289631 0 0 1 0 13.10428 114.535524 114.535524 0 0 0 80.95838 195.521347 9.262187 9.262187 0 0 1 9.262187 9.262187v125.279661a9.275909 9.275909 0 0 1-9.262187 9.262188 114.535524 114.535524 0 0 0-80.95838 195.521346 9.289631 9.289631 0 0 1 0 13.10428l-88.560233 88.615121a9.289631 9.289631 0 0 1-13.10428 0 113.300565 113.300565 0 0 0-80.546727-33.673197 115.468603 115.468603 0 0 0-79.037332 31.175837 112.971243 112.971243 0 0 0-35.937288 83.455739 9.275909 9.275909 0 0 1-9.275909 9.262188h-125.265939a9.275909 9.275909 0 0 1-9.27591-9.262188c0-63.216145-51.566371-114.65902-114.97462-114.65902a113.273122 113.273122 0 0 0-80.519283 33.700641 9.289631 9.289631 0 0 1-13.10428 0l-88.587677-88.642564a9.289631 9.289631 0 0 1 0-13.10428 114.535524 114.535524 0 0 0-80.958379-195.521347 9.262187 9.262187 0 0 1-9.262187-9.262187v-125.279661a9.275909 9.275909 0 0 1 9.262187-9.262188 114.535524 114.535524 0 0 0 80.958379-195.521346 9.262187 9.262187 0 0 1 0-13.10428l88.560234-88.53279a9.262187 9.262187 0 0 1 13.10428 0 113.341731 113.341731 0 0 0 80.546726 33.659475c63.394527 0 114.97462-51.429153 114.97462-114.65902a9.275909 9.275909 0 0 1 9.27591-9.262187h125.265939m0-52.636668h-125.265939a61.898856 61.898856 0 0 0-61.898856 61.94002c0 37.309463-30.530914 62.022351-62.351674 62.022352a60.622732 60.622732 0 0 1-43.319593-18.263662 61.912577 61.912577 0 0 0-87.544824 0l-88.560234 88.560234a61.898856 61.898856 0 0 0 0 87.544824c38.99724 38.99724 11.375338 105.657546-43.772411 105.657545A61.898856 61.898856 0 0 0 0 449.387613v125.279661a61.898856 61.898856 0 0 0 61.898856 61.898856c55.14775 0 82.769651 66.674028 43.772411 105.657545a61.898856 61.898856 0 0 0 0 87.544824l88.560234 88.560234a61.912577 61.912577 0 0 0 87.544824 0 60.595289 60.595289 0 0 1 43.319593-18.263662c31.82076 0 62.351674 24.699167 62.351674 62.036073a61.898856 61.898856 0 0 0 61.898856 61.898856h125.265939a61.898856 61.898856 0 0 0 61.898856-61.885134c0-37.323185 30.530914-62.036073 62.351673-62.036073a60.677619 60.677619 0 0 1 43.319594 18.263661 61.912577 61.912577 0 0 0 87.544824 0l88.587677-88.601399a61.898856 61.898856 0 0 0 0-87.544823c-38.99724-38.99724-11.375338-105.657546 43.772412-105.657546a61.898856 61.898856 0 0 0 61.885133-61.912577v-125.279661a61.898856 61.898856 0 0 0-61.898855-61.898856c-55.14775 0-82.769651-66.674028-43.772412-105.657546a61.898856 61.898856 0 0 0 0-87.544823l-88.560234-88.560234a61.912577 61.912577 0 0 0-87.544823 0 60.595289 60.595289 0 0 1-43.319594 18.263662c-31.82076 0-62.351674-24.699167-62.351674-62.022352A61.898856 61.898856 0 0 0 574.626109 0.027444z"  /></svg>