<?xml version="1.0" standalone="no"?><!DOCTYPE svg PUBLIC "-//W3C//DTD SVG 1.1//EN" "http://www.w3.org/Graphics/SVG/1.1/DTD/svg11.dtd"><svg class="icon" width="200px" height="200.00px" viewBox="0 0 1024 1024" version="1.1" xmlns="http://www.w3.org/2000/svg"><path fill="#2c2c2c" d="M919.904 342.958c-1.732-2.128-3.453-4.044-5.15-5.804-2.012-2.829-4.612-5.206-7.615-6.965-0.896-0.71-1.763-1.371-2.575-1.946l-0.349 0.489c-2.89-1.203-6.058-1.869-9.38-1.869-13.503 0-24.447 10.943-24.447 24.447 0 8.454 4.3 15.908 10.828 20.3 0.459 0.512 0.931 1.056 1.406 1.635 8.204 10.1 8.204 17.471-7.605 31.075-6.896 5.934-14.418 11.198-22.481 15.829-15.721 9.021-32.76 15.248-49.821 19.116-1.898 0.433-3.716 0.816-5.432 1.155-2.918-16.101-6.94-32.153-12.227-47.995-12.477-37.413-31.436-71.077-57.68-99.856-8.123-8.911-16.58-17.006-25.342-24.331 2.099-3.447 4.764-7.702 7.928-12.597 9.361-14.48 19.541-28.956 30.135-42.378 16.096-20.391 31.613-36.353 45.333-45.974 13.114-9.197 21.136-10.79 25.781-7.883 60.728 37.972 72.188 51.111 65.184 73.828-4.623 15.022-10.315 24.202-21.012 34.157-6.998 6.509-16.359 13.575-31.241 23.678-8.18 5.557-31.724 21.006-40.055 26.565l0.085 0.124c-6.743 4.171-11.234 11.624-11.234 20.134 0 13.066 10.588 23.654 23.654 23.654 7.377 0 13.963-3.374 18.302-8.666 10.703-6.582 29.168-17.276 36.233-22.074 16.738-11.364 27.79-19.71 36.971-28.246 16.933-15.746 27.125-32.201 34.205-55.177 16.313-52.933-6.778-79.398-85.624-128.707-24.325-15.208-51.64-9.788-78.837 9.29-9.226 6.472-18.518 14.543-27.878 24.010-5.286-17.333-21.133-36.195-51.312-52.536-1.376-0.747-2.782-1.485-4.215-2.219-23.539-12.022-45.796-2.791-61.627 18.618-9.938 13.446-18.019 32.043-25.028 54.921-4.391 14.333-8.092 29.527-11.155 44.704-0.033 0.154-0.060 0.302-0.091 0.456-27.273-2.358-54.317 0.263-80.258 6.62-21.020 2.53-38.684 19.433-43.544 24.676-8.101 8.728-16.207 17.754-23.809 26.627-2.684 3.13-5.269 6.199-7.733 9.189-3.154 3.83-6.106 7.51-8.824 11.033-26.033 33.693-59.194 86.469-100.406 158.072-6.784 11.787-13.777 24.068-21.043 36.948-14.288 25.326-107.409 194.722-120.016 214.906-22.447 35.951-30.334 51.448-44.191 83.194-0.508 1.151-0.508 1.151-1.006 2.292-3.917 8.917-6.889 15.152-10.849 22.506-1.357 2.521-6.844 12.439-7.895 14.365-3.344 6.136-5.947 11.173-8.287 16.16-10.295 21.915-14.111 39.584-7.639 56.754 8.57 22.729 31.381 32.853 64.945 32.853 111.278 0 461.754-187.263 608.912-301.384 2.431-1.89 4.755-3.859 6.98-5.911 11.408-10.516 18.57-21.182 22.309-29.239l1.653-4.861c1.008-4.492 2.418-12.281 3.802-22.832 3.35-25.619 4.645-52.328 3.212-79.354 21.458-3.606 47.416-11.7 73.594-26.723 10.63-6.101 20.64-13.104 29.905-21.081 37.086-31.915 37.086-68.801 13.554-97.769v0zM623.717 224.966c2.774-13.748 6.116-27.47 9.998-40.134 5.546-18.118 11.71-32.308 17.722-40.432 1.888-2.556 2.282-3.491 2.114-3.898 0.751 0.388 1.506 0.781 2.227 1.175 23.045 12.477 28.25 21.038 28.206 23.439 0.006-0.182 0.006-0.182 0.010-0.379 0 0 6.212 5.052 16.959 5.417 10.746 0.36 16.125-4.309 16.125-4.309-4.88 5.544-9.773 11.432-14.683 17.653-11.618 14.721-22.647 30.4-32.777 46.069-2.691 4.165-5.171 8.107-7.431 11.777-12.716-6.762-25.583-12.112-38.514-16.158 0.012-0.077 0.027-0.142 0.043-0.22v0zM752.006 561.652c-0.892 6.817-1.763 12.112-2.445 15.651-1.819 3.053-5.232 7.578-10.246 12.203-1.233 1.137-2.517 2.225-3.856 3.258-40.37 31.313-98.004 69.012-161.84 106.748l-0.155-0.254-57.758-96.265c-3.595-8.844-12.262-15.076-22.394-15.076-13.35 0-24.172 10.823-24.172 24.172 0 5.277 1.692 10.158 4.563 14.13l-0.052 0.034 58.402 97.34c-147.070 83.515-313.253 160.481-376.065 160.481-15.807 0-20.045-1.883-19.997-1.758-0.518-1.367 1.006-8.403 6.169-19.394 1.864-3.975 4.064-8.23 6.989-13.598 0.924-1.692 6.496-11.759 8.011-14.577 4.649-8.633 8.138-15.962 12.53-25.946 0.527-1.208 0.527-1.208 1.048-2.401 12.991-29.748 19.851-43.236 40.917-76.968 7.073-11.327 36.507-64.14 64.778-115.128l72.902 89.343c4.376 5.861 11.366 9.654 19.247 9.654 13.258 0 24.004-10.747 24.004-24.004 0-6.131-2.301-11.725-6.083-15.968l0.034-0.024-85.039-104.265c14.988-27.079 27.029-48.855 31.262-56.356 7.204-12.764 14.126-24.926 20.841-36.588 25.904-45.009 48.516-82.33 67.832-111.619l2.952 4.856 81.076 133.269c3.409 9.224 12.275 15.794 22.678 15.794 13.353 0 24.17-10.823 24.17-24.177 0-3.692-0.829-7.19-2.309-10.32l0.221-0.134-12.483-20.521-85.917-142.411c0.946-1.256 28.43-32.657 36.134-40.959 2.494-2.689 4.668-5.009 6.472-6.913 3.255-1.087 7.732-2.415 13.282-3.777 43.404-10.632 90.398-8.307 134.171 15.76 17.767 9.769 34.485 22.965 50.005 39.982 21.515 23.594 37.168 51.389 47.608 82.69 16.803 50.375 18.989 104.638 12.517 154.034v0zM752.006 561.652z" /></svg>