<?xml version="1.0" standalone="no"?><!DOCTYPE svg PUBLIC "-//W3C//DTD SVG 1.1//EN" "http://www.w3.org/Graphics/SVG/1.1/DTD/svg11.dtd"><svg t="1597136641258" class="icon" viewBox="0 0 1024 1024" version="1.1" xmlns="http://www.w3.org/2000/svg" p-id="4806" xmlns:xlink="http://www.w3.org/1999/xlink" width="200" height="200"><defs><style type="text/css"></style></defs><path d="M972.1 345.3c-7.6 0-14.8-4.3-18.2-11.6-58-126.1-167.3-221.3-299.9-261.4-10.6-3.2-16.6-14.4-13.4-24.9S655 30.8 665.5 34C809 77.4 927.3 180.5 990.1 317c4.6 10 0.2 21.9-9.8 26.5-2.5 1.2-5.4 1.8-8.2 1.8zM55.3 345.2c-2.8 0-5.6-0.6-8.4-1.8-10-4.6-14.4-16.5-9.8-26.5C98.2 184.2 212.8 82.3 351.4 37.2c10.5-3.4 21.8 2.3 25.2 12.8 3.4 10.5-2.3 21.8-12.8 25.2C235.8 116.8 130 211 73.5 333.5c-3.4 7.4-10.7 11.7-18.2 11.7zM510.3 181.4c47.9 0 94.3 9.4 138 27.9 42.2 17.9 80.2 43.4 112.7 76 32.6 32.6 58.2 70.5 76 112.7 18.5 43.7 27.9 90.1 27.9 138 0 47.9-9.4 94.3-27.9 138-17.9 42.2-43.4 80.2-76 112.7-32.6 32.6-70.5 58.2-112.7 76-43.7 18.5-90.1 27.9-138 27.9s-94.3-9.4-138-27.9c-42.2-17.9-80.2-43.4-112.7-76-32.6-32.6-58.2-70.5-76-112.7-18.5-43.7-27.9-90.1-27.9-138 0-47.9 9.4-94.3 27.9-138 17.9-42.2 43.4-80.2 76-112.7s70.5-58.2 112.7-76c43.7-18.5 90.1-27.9 138-27.9m0-41.8c-218.9 0-396.4 177.5-396.4 396.4s177.5 396.4 396.4 396.4S906.7 755 906.7 536.1 729.3 139.6 510.3 139.6z" fill="#1C1C1C" p-id="4807"></path><path d="M513.7 556.1c-3.8 0-7.5-1.1-10.8-3.2-5.7-3.7-9.2-10-9.2-16.8V232.5c0-11 9-20 20-20s20 9 20 20V505l171-77.9c10-4.6 21.9-0.1 26.5 9.9 4.6 10.1 0.1 21.9-9.9 26.5L522 554.3c-2.7 1.2-5.5 1.8-8.3 1.8zM202 991.8c-5.1 0-10.2-2-14.1-5.9-7.8-7.8-7.8-20.5 0-28.3l99.8-99.8c7.8-7.8 20.5-7.8 28.3 0s7.8 20.5 0 28.3l-99.8 99.8c-3.9 3.9-9 5.9-14.2 5.9zM818.6 991.8c-5.1 0-10.2-2-14.1-5.9l-99.8-99.8c-7.8-7.8-7.8-20.5 0-28.3 7.8-7.8 20.5-7.8 28.3 0l99.8 99.8c7.8 7.8 7.8 20.5 0 28.3-4 3.9-9.1 5.9-14.2 5.9z" fill="#1C1C1C" p-id="4808"></path></svg>