<?xml version="1.0" standalone="no"?><!DOCTYPE svg PUBLIC "-//W3C//DTD SVG 1.1//EN" "http://www.w3.org/Graphics/SVG/1.1/DTD/svg11.dtd"><svg class="icon" width="200px" height="181.56px" viewBox="0 0 1128 1024" version="1.1" xmlns="http://www.w3.org/2000/svg"><path fill="#2c2c2c" d="M1033.829 497.974l-123.538-271.227c-32.224-96.361-111.538-164.748-204.26-164.748h-300.608c-99.521 0-183.676 78.743-210.605 186.335l-113.725 249.64c-20.125 44.221-24.517 95.037-12.337 143.144 12.158 48.086 39.443 87.693 76.788 111.535 15.247 9.715 31.802 16.102 48.776 19.522 26.303 108.754 110.88 188.662 211.102 188.662h300.608c99.986 0 184.415-79.498 210.94-187.832 18.239-3.183 36.080-9.926 52.412-20.351 37.359-23.842 64.629-63.448 76.788-111.535 12.18-48.108 7.783-98.923-12.341-143.144v0zM170.021 698.915c-25.223-16.095-43.642-42.84-51.845-75.323-8.231-32.459-5.261-66.772 8.322-96.642l59.191-129.917v303.737c0 2.090 0.221 4.085 0.26 6.15-5.456-2.18-10.814-4.75-15.928-8.003v0zM874.195 700.768c0 109.732-75.442 198.99-168.163 198.99h-300.608c-92.721 0-168.146-89.259-168.146-198.99v-378.704c0-109.751 75.425-199.016 168.146-199.016h300.608c92.721 0 168.163 89.265 168.163 199.016v378.704zM996.751 623.593c-8.211 32.483-26.628 59.228-51.85 75.323-6.2 3.944-12.763 6.982-19.439 9.383 0.060-2.542 0.319-4.985 0.319-7.529v-311.358l62.642 137.538c13.583 29.871 16.553 64.183 8.328 96.642v0zM339.167 367.993c-28.571 0-51.727 27.402-51.727 61.191 0 33.814 23.154 61.217 51.727 61.217 28.55 0 51.705-27.402 51.705-61.217 0-33.788-23.155-61.191-51.705-61.191v0zM772.309 367.993c-28.578 0-51.731 27.402-51.731 61.191 0 33.814 23.154 61.217 51.731 61.217 28.55 0 51.704-27.402 51.704-61.217 0-33.788-23.154-61.191-51.704-61.191v0zM672.102 748.691c-47.275 0-85.737-45.499-85.737-101.441 0-3.803-0.658-7.389-1.723-10.739 17.414-11.92 29.273-33.909 29.273-59.433 0-38.018-26.045-68.843-58.192-68.843-32.12 0-58.186 30.822-58.186 68.843 0 25.524 11.861 47.512 29.28 59.433-1.064 3.35-1.728 6.937-1.728 10.739 0 55.942-38.467 101.441-85.716 101.441-14.249 0-25.807 13.678-25.807 30.535 0 16.837 11.558 30.517 25.807 30.517 49.052 0 92.073-30.701 116.349-76.654 24.299 45.953 67.298 76.654 116.378 76.654 14.249 0 25.785-13.68 25.785-30.517 0-16.856-11.538-30.535-25.785-30.535v0z" /></svg>