<?xml version="1.0" standalone="no"?><!DOCTYPE svg PUBLIC "-//W3C//DTD SVG 1.1//EN" "http://www.w3.org/Graphics/SVG/1.1/DTD/svg11.dtd"><svg t="1585322685251" class="icon" viewBox="0 0 1024 1024" version="1.1" xmlns="http://www.w3.org/2000/svg" p-id="11533" xmlns:xlink="http://www.w3.org/1999/xlink" width="200" height="200"><defs><style type="text/css"></style></defs><path d="M804.6 63.9H236.1c-50.1 0-99.7 34.2-99.7 85V715c0 50.8 32.6 99.8 99.7 99.8H313l-61.6 103c-8 13.7-3.2 29.7 10.5 37.5 13.7 7.9 31.5 6 39.5-7.7l78.3-132.8h281.5l78.3 131.9c8 13.7 25.6 16.6 39.4 8.7 13.7-8 18.5-22.9 10.6-36.6l-61.6-104h76.8c50.1 0 82.7-49 82.7-99.8V149c-0.1-50.9-32.6-85.1-82.8-85.1z m39.5 665.4c0 18.8-6.8 42-25 42H216.9c-26.5 0-34.4-35.6-34.4-54.3V512h661.7v217.3z m0-261H182.4V136.2c0-18.8 23.8-27.3 41.9-27.3h594.8c18.1 0 25 8.4 25 27.3v332.1z m-510 210c17.9 10.3 39.9 10.3 57.8 0s28.9-29.4 28.9-50c0-31.9-25.9-57.8-57.8-57.8s-57.8 25.9-57.8 57.8c0 20.6 11 39.7 28.9 50z m343.6 7.7c31.9 0 57.8-25.9 57.8-57.8s-25.9-57.8-57.8-57.8-57.8 25.9-57.8 57.8c0 32 25.9 57.8 57.8 57.8z" fill="#2c2c2c" p-id="11534"></path></svg>