<?xml version="1.0" standalone="no"?><!DOCTYPE svg PUBLIC "-//W3C//DTD SVG 1.1//EN" "http://www.w3.org/Graphics/SVG/1.1/DTD/svg11.dtd"><svg class="icon" width="200px" height="200.00px" viewBox="0 0 1024 1024" version="1.1" xmlns="http://www.w3.org/2000/svg"><path fill="#2c2c2c" d="M895.3 434.1c22.9-24.2 35.7-51 35.7-79.2 0-28.3-12.9-55.2-35.9-79.5 22.8-24.1 35.4-50.8 35.4-78.9 0-107.1-184-194-411-194s-411 86.9-411 194c0 28.3 12.9 55.2 35.9 79.5-22.8 24.1-35.4 50.8-35.4 78.9 0 28.2 12.8 55 35.7 79.2-22.9 24.2-35.7 51-35.7 79.2s12.8 55 35.7 79.2c-22.9 24.2-35.7 51-35.7 79.2s12.8 55 35.7 79.2C121.8 775 109 801.8 109 830c0 107.1 184 194 411 194s411-86.9 411-194c0-28.2-12.8-55-35.7-79.2 22.9-24.2 35.7-51 35.7-79.2s-12.8-55-35.7-79.2c22.9-24.2 35.7-51 35.7-79.2s-12.8-55-35.7-79.1zM851 480.4c10.6 11.8 16 22.9 16 32.8s-5.4 21-16 32.8c-2 2.2-4.1 4.4-6.4 6.6-14.7 14.1-35.6 27.7-61.1 39.8-0.1 0-0.2 0.1-0.2 0.1-33 15.6-72 27.9-115.9 36.7-22.5 4.5-45.7 7.9-69.5 10.2-25.4 2.5-51.5 3.8-77.9 3.8-26.5 0-52.5-1.3-77.9-3.8-23.8-2.3-47-5.7-69.5-10.2-43.8-8.8-82.8-21.1-115.9-36.7-0.1 0-0.2-0.1-0.2-0.1-25.5-12.1-46.4-25.7-61.1-39.8-2.3-2.2-4.4-4.4-6.4-6.6-10.6-11.8-16-22.9-16-32.8s5.4-21 16-32.8c2-2.2 4.1-4.4 6.4-6.6 24.8 15.1 54.2 28.3 87.2 39.4 46.8 15.7 101 26.8 159.5 32.1 25.2 2.3 51.3 3.5 77.9 3.5s52.7-1.2 77.9-3.5c58.5-5.3 112.6-16.5 159.5-32.1 33-11 62.4-24.3 87.2-39.4 2.3 2.2 4.5 4.4 6.4 6.6z m0 158.4c10.6 11.8 16 22.9 16 32.8s-5.4 21-16 32.8c-2 2.2-4.1 4.4-6.4 6.6-14.7 14.1-35.6 27.7-61.1 39.8-0.1 0-0.2 0.1-0.2 0.1-33 15.6-72 27.9-115.9 36.7-46.6 9.3-96.2 14-147.4 14-51.3 0-100.9-4.7-147.4-14-43.8-8.8-82.8-21.1-115.9-36.7-0.1 0-0.2-0.1-0.2-0.1-25.5-12.1-46.4-25.7-61.1-39.8-2.3-2.2-4.4-4.4-6.4-6.6-10.6-11.8-16-22.9-16-32.8s5.4-21 16-32.8c2-2.2 4.1-4.4 6.4-6.6 24.8 15.1 54.2 28.3 87.2 39.4 46.8 15.7 101 26.8 159.5 32.1 25.2 2.3 51.3 3.5 77.9 3.5s52.7-1.2 77.9-3.5c58.5-5.3 112.6-16.5 159.5-32.1 33-11 62.4-24.3 87.2-39.4 2.3 2.2 4.5 4.4 6.4 6.6zM189 387.7c-10.6-11.8-16-22.9-16-32.8s5.4-21 16-32.8c1.9-2.1 4-4.3 6.2-6.4 24.8 15 54.2 28.3 87.2 39.3 46.9 15.7 101 26.8 159.5 32.1 25.2 2.3 51.1 3.5 77.7 3.5 26.7 0 52.9-1.2 78.2-3.5 58.5-5.3 112.6-16.5 159.5-32.2 33-11.1 62.5-24.4 87.3-39.5 2.4 2.2 4.6 4.5 6.6 6.8 10.6 11.8 16 22.9 16 32.8s-5.4 21-16 32.8c-2 2.2-4.1 4.4-6.4 6.6-14.7 14.1-35.6 27.7-61.1 39.8-0.1 0-0.2 0.1-0.2 0.1-33 15.6-72 27.9-115.9 36.7-22.5 4.5-45.7 7.9-69.5 10.2-25.4 2.5-51.5 3.8-77.9 3.8-26.5 0-52.5-1.3-77.9-3.8-23.8-2.3-47-5.7-69.5-10.2-43.8-8.8-82.8-21.1-115.9-36.7-0.1 0-0.2-0.1-0.2-0.1-25.5-12.1-46.4-25.7-61.1-39.8-2.5-2.3-4.7-4.5-6.6-6.7z m-0.5-224c14.8-16.5 38.2-32.5 67.7-46.5 33-15.6 72-27.9 115.9-36.7 46.6-9.3 96.2-14 147.4-14 51.3 0 100.9 4.7 147.4 14 43.8 8.8 82.8 21.1 115.9 36.7 29.6 14 53 30 67.7 46.5 10.6 11.8 16 22.9 16 32.8s-5.4 21-16 32.8c-1.9 2.1-4 4.3-6.2 6.4-14.7 14.1-35.6 27.8-61 39.9-0.2 0.1-0.3 0.2-0.5 0.2-33 15.6-72 27.9-115.9 36.7-22.4 4.5-45.6 7.9-69.3 10.2-25.5 2.5-51.6 3.8-78.2 3.8-26.4 0-52.4-1.3-77.7-3.7-23.9-2.3-47.2-5.8-69.7-10.3-43.8-8.8-82.8-21.1-115.8-36.7-25.5-12-46.4-25.6-61.1-39.7-2.4-2.2-4.6-4.5-6.6-6.8-10.6-11.8-16-22.9-16-32.8s5.4-21 16-32.8zM851 862.8c-14.8 16.5-38.2 32.5-67.7 46.5-33 15.6-72 27.9-115.9 36.7-46.6 9.3-96.2 14-147.4 14-51.3 0-100.9-4.7-147.4-14-43.8-8.8-82.8-21.1-115.9-36.7-29.6-14-53-30-67.7-46.5-10.6-11.8-16-22.9-16-32.8s5.4-21 16-32.8c2-2.2 4.1-4.4 6.4-6.6 75.2 45.6 192.6 75 324.6 75s249.4-29.4 324.6-75c2.3 2.2 4.4 4.4 6.4 6.6 10.6 11.8 16 22.9 16 32.8s-5.4 21-16 32.8zM497.5 259.9c-6.2-5.9-9.6-16-10.6-30H459c1.6 21.2 7.5 36.7 18.3 47 9.3 9 22.7 14.2 40.3 15.2v22.7h16v-22.7c16-1 28.9-4.9 39.3-11.6 13.4-9.3 20.4-23 20.4-41.3 0-18.6-9-32.8-26.9-42.9-2.6-1-13.7-5.4-32.8-12.7v-59.2c7 0.8 12.7 2.8 17.1 6.2 6.5 4.7 10.6 12.7 12.1 23.8h27.4c-2.6-18.6-9-32.3-19.6-40.6-9.3-7.5-21.4-11.9-37-12.9V79.7h-16v21.2c-15 0.8-27.1 4.7-37 11.9-12.9 9-19.4 22-19.4 38.8 0 19.1 9 33.3 27.1 42.9l29.2 10.9v63.1c-8.6-1.2-15.4-4-20-8.6z m36.2-48.9c1.6 0.5 3.1 1.3 4.7 1.8 18.1 6.2 27.1 15.5 27.1 27.4 0 9-3.9 16-11.1 21.2-5.7 3.6-12.4 5.9-20.7 7V211z m-17.1-33.6c-18.1-6.7-27.1-15.2-27.1-25.8 0-9.8 3.4-17.1 10.6-21.7 4.4-3.1 10.3-5.2 17.6-5.7v53.5c-0.6 0-0.8-0.3-1.1-0.3z" /></svg>