<?xml version="1.0" standalone="no"?><!DOCTYPE svg PUBLIC "-//W3C//DTD SVG 1.1//EN" "http://www.w3.org/Graphics/SVG/1.1/DTD/svg11.dtd"><svg class="icon" width="200px" height="200.00px" viewBox="0 0 1024 1024" version="1.1" xmlns="http://www.w3.org/2000/svg"><path fill="#2c2c2c" d="M898.897 262.51H718.143c11.12-18.983 16.86-40.91 16.86-62.332 0-56.446-38.85-113.586-113.166-113.586-34.351 0-63.551 11.962-86.804 35.59-12.486 12.657-21.988 27.814-29.431 43.707-7.273-15.872-16.608-30.988-28.885-43.643-23.042-23.673-52.096-35.655-86.426-35.655-44.022 0-70.574 19.635-85.102 36.118-18.1 20.518-28.065 48.015-28.065 77.468 0 21.423 5.76 43.35 16.882 62.333H125.36c-14.926 0-27.015 12.11-27.015 27.036v245.693c0 14.927 12.088 27.036 27.015 27.036h36.685v346.077c0 14.928 12.088 27.037 27.014 27.037H835.197c14.928 0 27.016-12.109 27.016-27.037V562.277h36.684c14.927 0 27.014-12.109 27.014-27.036V289.548c0-14.927-12.087-27.037-27.014-27.037zM573.547 160.11c12.888-13.097 28.675-19.488 48.29-19.488 43.641 0 59.137 32.08 59.137 59.557 0 16.524-5.55 32.46-15.243 43.707-10.615 12.34-25.332 18.605-43.79 18.626l-86.236-0.693c3.281-31.47 13.099-76.608 37.842-101.71z m-242.373 40.07c0-16.271 5.151-31.073 14.569-41.73 10.407-11.815 25.395-17.828 44.548-17.828 19.404 0 34.96 6.286 47.575 19.214 24.47 25.08 33.805 70.87 36.728 102.676H390.292c-46.671 0-59.118-39.186-59.118-62.333z m-178.8 116.383H410.79v191.665H152.375V316.562z m63.7 245.715h194.714v319.065H216.075V562.277z m248.764 319.065v-564.78h94.583v564.78h-94.583z m343.326 0H613.47V562.277h194.694v319.065z m63.699-373.115H613.47V316.562H871.863v191.665z" /></svg>