<?xml version="1.0" standalone="no"?><!DOCTYPE svg PUBLIC "-//W3C//DTD SVG 1.1//EN" "http://www.w3.org/Graphics/SVG/1.1/DTD/svg11.dtd"><svg class="icon" width="200px" height="200.00px" viewBox="0 0 1024 1024" version="1.1" xmlns="http://www.w3.org/2000/svg"><path fill="#2c2c2c" d="M511.46 957.754c-220.267 0-397.632-271.938-397.632-497.086 0-219.254 178.378-397.626 397.632-397.626 219.242 0 397.613 178.372 397.613 397.626 0 225.148-177.356 497.086-397.613 497.086z m0-817.827c-176.858 0-320.748 143.883-320.748 320.74 0 185.223 151.023 420.202 320.748 420.202 169.724 0 320.728-234.979 320.728-420.201 0-176.858-143.882-320.741-320.728-320.741z"  /><path fill="#2c2c2c" d="M339.308 524.388c-59.503 0-102.688-26.617-102.688-63.294 0-36.684 43.185-63.307 102.688-63.307s102.7 26.623 102.7 63.307c0 36.676-43.196 63.294-102.7 63.294z m-49.378-63.302c6.506 4.875 23.725 12.046 49.378 12.046 25.654 0 42.873-7.17 49.393-12.046-6.508-4.874-23.727-12.044-49.393-12.044-25.665 0-42.872 7.171-49.378 12.044zM683.587 524.388c-59.5 0-102.687-26.617-102.687-63.294 0-36.684 43.185-63.307 102.687-63.307 59.503 0 102.703 26.623 102.703 63.307 0 36.676-43.2 63.294-102.703 63.294z m-49.378-63.302c6.506 4.875 23.726 12.046 49.378 12.046 25.655 0 42.873-7.17 49.394-12.046-6.508-4.874-23.727-12.044-49.394-12.044-25.665 0-42.872 7.171-49.378 12.044zM511.46 823.255c-50.868 0-90.712-30.065-90.712-68.437 0-38.375 39.844-68.44 90.712-68.44 50.855 0 90.7 30.065 90.7 68.44 0 38.372-39.844 68.437-90.7 68.437z m0-85.62c-25.628 0-39.456 12.195-39.456 17.183 0 4.986 13.828 17.18 39.456 17.18 25.615 0 39.444-12.194 39.444-17.18 0-4.988-13.828-17.182-39.444-17.182zM535.363 654.356h-47.83c-14.153 0-25.626-11.475-25.626-25.628s11.474-25.63 25.626-25.63h47.83c14.152 0 25.628 11.477 25.628 25.63 0 14.153-11.476 25.628-25.628 25.628z"  /></svg>