<?xml version="1.0" standalone="no"?><!DOCTYPE svg PUBLIC "-//W3C//DTD SVG 1.1//EN" "http://www.w3.org/Graphics/SVG/1.1/DTD/svg11.dtd"><svg class="icon" width="200px" height="200.00px" viewBox="0 0 1024 1024" version="1.1" xmlns="http://www.w3.org/2000/svg"><path fill="#2c2c2c" d="M839.234783 1024H273.808696c-57.878261 0-104.626087-46.747826-104.626087-104.626087v-53.426087c0-13.356522 11.130435-22.26087 22.260869-22.260869s22.26087 11.130435 22.26087 22.260869v53.426087c0 33.391304 26.713043 60.104348 60.104348 60.104348h565.426087c33.391304 0 60.104348-26.713043 60.104347-60.104348V104.626087c0-33.391304-26.713043-60.104348-60.104347-60.104348H273.808696c-33.391304 0-60.104348 26.713043-60.104348 60.104348v53.426087c0 13.356522-11.130435 22.26087-22.26087 22.260869s-22.26087-11.130435-22.260869-22.260869V104.626087C166.956522 46.747826 215.930435 0 273.808696 0h565.426087c57.878261 0 104.626087 46.747826 104.626087 104.626087v814.747826c0 57.878261-46.747826 104.626087-104.626087 104.626087z"  /><path fill="#2c2c2c" d="M282.713043 333.913043H102.4c-13.356522 0-22.26087-11.130435-22.26087-22.260869s11.130435-22.26087 22.26087-22.26087h180.313043c13.356522 0 22.26087 11.130435 22.26087 22.26087s-8.904348 22.26087-22.26087 22.260869zM282.713043 534.26087H102.4c-13.356522 0-22.26087-11.130435-22.26087-22.26087 0-13.356522 11.130435-22.26087 22.26087-22.26087h180.313043c13.356522 0 22.26087 11.130435 22.26087 22.26087s-8.904348 22.26087-22.26087 22.26087zM282.713043 736.834783H102.4c-13.356522 0-22.26087-11.130435-22.26087-22.26087s11.130435-22.26087 22.26087-22.26087h180.313043c13.356522 0 22.26087 11.130435 22.26087 22.26087s-8.904348 22.26087-22.26087 22.26087zM698.991304 545.391304h-91.269565v-69.008695h91.269565c13.356522 0 22.26087-11.130435 22.26087-22.26087 0-13.356522-11.130435-22.26087-22.26087-22.260869h-71.234782l51.2-77.913044c6.678261-11.130435 4.452174-24.486957-6.678261-31.165217-11.130435-6.678261-24.486957-4.452174-31.165218 6.678261l-53.426086 82.365217-53.426087-82.365217c-6.678261-11.130435-20.034783-13.356522-31.165218-6.678261-11.130435 6.678261-13.356522 20.034783-6.678261 31.165217l51.2 77.913044h-71.234782c-13.356522 0-22.26087 11.130435-22.26087 22.260869 0 13.356522 11.130435 22.26087 22.26087 22.26087h91.269565v69.008695h-91.269565c-13.356522 0-22.26087 11.130435-22.26087 22.26087 0 13.356522 11.130435 22.26087 22.26087 22.260869h91.269565V690.086957c0 13.356522 11.130435 22.26087 22.260869 22.260869s22.26087-11.130435 22.26087-22.260869v-100.173914h91.269565c13.356522 0 22.26087-11.130435 22.26087-22.260869-2.226087-11.130435-13.356522-22.26087-26.713044-22.26087z"  /></svg>