<?xml version="1.0" standalone="no"?><!DOCTYPE svg PUBLIC "-//W3C//DTD SVG 1.1//EN" "http://www.w3.org/Graphics/SVG/1.1/DTD/svg11.dtd"><svg class="icon" width="200px" height="178.24px" viewBox="0 0 1149 1024" version="1.1" xmlns="http://www.w3.org/2000/svg"><path fill="#2c2c2c" d="M596.461177 556.727617A298.603906 298.603906 0 0 0 452.531595 0a298.603906 298.603906 0 0 0-144.179459 556.727617A459.775051 459.775051 0 0 0 0.002999 992.514405a31.484596 31.484596 0 0 0 30.98484 31.484595 31.484596 31.484596 0 0 0 31.734474-31.484595 394.307082 394.307082 0 0 1 389.809282-397.055738 394.307082 394.307082 0 0 1 390.309039 397.055738 30.98484 30.98484 0 1 0 61.96968 0 459.275296 459.275296 0 0 0-308.349137-435.786788z m-374.816618-258.873345a230.637159 230.637159 0 1 1 230.637159 234.385326 232.886059 232.886059 0 0 1-230.387282-234.385326z m610.701209 260.122733a292.107084 292.107084 0 0 0 157.672858-260.122733A289.358429 289.358429 0 0 0 703.408852 6.496821a24.987775 24.987775 0 0 0 0 49.975549 240.882147 240.882147 0 0 1 0 481.764294 24.987775 24.987775 0 0 0 0 49.975549 399.804393 399.804393 0 0 1 396.555982 404.302192 24.987775 24.987775 0 1 0 49.975549 0 453.777986 453.777986 0 0 0-317.594615-434.5374z" /></svg>