<?xml version="1.0" standalone="no"?><!DOCTYPE svg PUBLIC "-//W3C//DTD SVG 1.1//EN" "http://www.w3.org/Graphics/SVG/1.1/DTD/svg11.dtd"><svg t="1585306787195" class="icon" viewBox="0 0 1024 1024" version="1.1" xmlns="http://www.w3.org/2000/svg" p-id="5271" xmlns:xlink="http://www.w3.org/1999/xlink" width="200" height="200"><defs><style type="text/css"></style></defs><path d="M744.09 349.79c-7.06 0-14.01-2.34-19.7-6.78a31.979 31.979 0 0 1-12.3-25.84l3.51-180.82a32.01 32.01 0 0 1 18.24-28.27 32.006 32.006 0 0 1 33.45 3.67l31.8 24.83 47.09-60.31c10.88-13.93 30.99-16.41 44.92-5.53l57.02 44.52c13.93 10.88 16.41 30.99 5.53 44.92l-47.09 60.31 31.8 24.83a32.01 32.01 0 0 1 11.67 31.56 31.996 31.996 0 0 1-23 24.55l-174.57 47.26c-2.77 0.73-5.58 1.1-8.37 1.1z m34.26-148.22l-1.44 74.18 71.61-19.39-6.58-5.13c-6.69-5.22-11.03-12.89-12.07-21.31s1.31-16.91 6.54-23.6l47.1-60.32-6.58-5.13-47.09 60.31c-10.88 13.93-30.99 16.4-44.92 5.53l-6.57-5.14zM280.42 349.79c-2.79 0-5.6-0.37-8.36-1.11L97.49 301.41c-11.7-3.17-20.61-12.67-23-24.55a32.01 32.01 0 0 1 11.67-31.56l31.8-24.83-47.09-60.31a32.042 32.042 0 0 1-6.54-23.6 32.008 32.008 0 0 1 12.07-21.31l57.02-44.52c13.93-10.88 34.04-8.4 44.92 5.53l47.09 60.31 31.8-24.83c9.55-7.46 22.5-8.88 33.45-3.67a31.992 31.992 0 0 1 18.24 28.27l3.51 180.82c0.2 10.07-4.36 19.65-12.3 25.84a32.022 32.022 0 0 1-19.71 6.79z m-104.43-93.43l71.61 19.39-1.44-74.18-6.58 5.13c-13.93 10.88-34.04 8.4-44.92-5.53l-47.09-60.31L141 146l47.09 60.31c5.22 6.69 7.57 15.18 6.54 23.6s-5.38 16.09-12.07 21.31l-6.57 5.14zM871.42 959.79c-9.52 0-18.93-4.23-25.24-12.31l-47.09-60.31-31.8 24.83a32.001 32.001 0 0 1-33.45 3.67 31.992 31.992 0 0 1-18.24-28.27l-3.51-180.82c-0.2-10.07 4.36-19.65 12.3-25.84s18.33-8.3 28.06-5.67l174.57 47.26c11.7 3.17 20.61 12.67 23 24.55a32.01 32.01 0 0 1-11.67 31.56l-31.8 24.83 47.09 60.31c10.88 13.93 8.4 34.04-5.53 44.92l-57.02 44.52a31.923 31.923 0 0 1-19.67 6.77z m-66.8-149.54a32.008 32.008 0 0 1 25.22 12.31l47.09 60.31 6.58-5.13-47.09-60.31c-5.22-6.69-7.57-15.18-6.54-23.6s5.38-16.09 12.07-21.31l6.58-5.13L776.92 748l1.44 74.17 6.58-5.13a31.911 31.911 0 0 1 19.68-6.79zM153.09 959.79c-6.89 0-13.82-2.21-19.67-6.78L76.4 908.49a32.008 32.008 0 0 1-12.07-21.31 31.955 31.955 0 0 1 6.54-23.6l47.09-60.31-31.8-24.83a32.01 32.01 0 0 1-11.67-31.56 31.996 31.996 0 0 1 23-24.55l174.57-47.26c9.72-2.63 20.12-0.53 28.06 5.67 7.94 6.2 12.5 15.77 12.3 25.84L308.9 887.4a32.01 32.01 0 0 1-18.24 28.27 32.006 32.006 0 0 1-33.45-3.67l-31.8-24.83-47.09 60.31c-6.3 8.08-15.72 12.31-25.23 12.31zM141 877.74l6.58 5.13 47.09-60.31a32.008 32.008 0 0 1 21.31-12.07 31.955 31.955 0 0 1 23.6 6.54l6.58 5.13 1.44-74.17-71.61 19.39 6.58 5.13c6.69 5.22 11.03 12.89 12.07 21.31s-1.31 16.91-6.54 23.6L141 877.74zM512 769c-68.65 0-133.19-26.73-181.73-75.27C281.73 645.19 255 580.65 255 512s26.73-133.19 75.27-181.73C378.81 281.73 443.35 255 512 255s133.19 26.73 181.73 75.27C742.27 378.81 769 443.35 769 512s-26.73 133.19-75.27 181.73C645.19 742.27 580.65 769 512 769z m0-450c-106.42 0-193 86.58-193 193s86.58 193 193 193 193-86.58 193-193-86.58-193-193-193z" p-id="5272" fill="#2c2c2c"></path><path d="M486.88 611.61v-41.17h-49.14c-10.63 0-15.94-4.86-15.94-14.61 0.87-7.97 6.18-12.82 15.94-14.61h49.14v-22.58h-49.14c-10.63 0-15.94-4.86-15.94-14.61 0.87-7.97 6.18-12.82 15.94-14.61h27.89l-42.5-59.77c-4.44-3.53-6.2-8.4-5.31-14.61 0.87-15.04 9.3-23.45 25.23-25.23 7.97 0.89 14.61 4.44 19.92 10.63l49.14 70.39 49.14-70.39c4.42-6.18 11.06-9.73 19.92-10.63 15.05 1.78 23.45 10.19 25.23 25.23 0 6.21-1.78 11.08-5.31 14.61l-42.5 59.77h27.89c8.84 1.78 14.15 6.64 15.94 14.61-0.89 9.75-6.2 14.61-15.94 14.61h-49.14v22.58h49.14c8.84 1.78 14.15 6.64 15.94 14.61-0.89 9.75-6.2 14.61-15.94 14.61h-49.14v41.17c-0.89 15.07-9.3 22.58-25.23 22.58-16.83 0-25.23-7.51-25.23-22.58z" p-id="5273" fill="#2c2c2c"></path></svg>