<?xml version="1.0" standalone="no"?><!DOCTYPE svg PUBLIC "-//W3C//DTD SVG 1.1//EN" "http://www.w3.org/Graphics/SVG/1.1/DTD/svg11.dtd"><svg class="icon" width="200px" height="200.00px" viewBox="0 0 1024 1024" version="1.1" xmlns="http://www.w3.org/2000/svg"><path d="M577.442377 188.839701a15.678829 15.678829 0 0 0-16.927586-13.87507H445.629213a15.678829 15.678829 0 0 0-16.927586 13.87507 15.678829 15.678829 0 0 0 16.927586 13.87507h115.024329a15.540078 15.540078 0 0 0 16.788835-13.87507zM533.874657 797.95527v-109.613052h88.800448a14.707574 14.707574 0 0 0 0-29.276398h-88.800448v-35.79768h88.800448a14.707574 14.707574 0 0 0 0-29.415148h-88.800448v-14.846325l78.532896-72.566616a13.87507 13.87507 0 0 0 0.832504-20.673854 14.846325 14.846325 0 0 0-20.673854-0.832504l-73.676621 67.987843-73.676621-68.126594a14.846325 14.846325 0 0 0-20.673855 0.832505 13.87507 13.87507 0 0 0 0.832505 20.673854l79.226649 73.121618v13.87507h-88.939198a14.707574 14.707574 0 0 0 0 29.415148h88.939198v36.352683h-88.939198a14.707574 14.707574 0 0 0 0 29.276398h88.939198v109.613052a14.707574 14.707574 0 1 0 29.276397 0z"  /><path d="M336.709914 318.294104H317.423567a24.420123 24.420123 0 0 0 0 48.840246h386.281946a24.142622 24.142622 0 0 0 23.86512-24.420123 24.558874 24.558874 0 0 0-23.86512-24.420123h-18.731345a204.37978 204.37978 0 0 0-15.401327-237.957449h-43.56772A170.247108 170.247108 0 0 1 633.220158 323.289129H388.047673a168.859601 168.859601 0 0 1-48.146493-117.660593 171.495864 171.495864 0 0 1 55.50028-125.708133H352.111241a205.906037 205.906037 0 0 0-46.620234 130.009405 202.021018 202.021018 0 0 0 31.218907 108.364296z"  /><path d="M343.7862 322.179123h41.625209c-1.526258-1.665008-3.191266-3.052515-4.717524-4.717524a166.500839 166.500839 0 0 1-43.428968-112.110564 172.467119 172.467119 0 0 1 344.934237 0A166.500839 166.500839 0 0 1 635.162667 322.179123h41.62521a197.997247 197.997247 0 0 0 38.850196-116.828088 205.351035 205.351035 0 0 0-410.702069 0 197.858497 197.858497 0 0 0 32.051411 108.086794z" fill="#020202" /><path d="M710.365546 96.154234a20.812605 20.812605 0 0 0 0 2.775014 223.666127 223.666127 0 0 1 23.310118 56.471535 444.002237 444.002237 0 1 1-446.777251 0 225.608637 225.608637 0 0 1 23.032616-56.749036 17.066336 17.066336 0 0 0 0-2.775014 485.627447 485.627447 0 1 0 400.157016 0z" fill="#231815" /></svg>