<?xml version="1.0" standalone="no"?><!DOCTYPE svg PUBLIC "-//W3C//DTD SVG 1.1//EN" "http://www.w3.org/Graphics/SVG/1.1/DTD/svg11.dtd"><svg class="icon" width="200px" height="200.00px" viewBox="0 0 1024 1024" version="1.1" xmlns="http://www.w3.org/2000/svg"><path fill="#2c2c2c" d="M711.69667 699.959859l-333.280596 0c-7.744381 0-14.012132 6.265704-14.012132 14.011108 0 7.746428 6.26775 14.012132 14.012132 14.012132l333.280596 0c7.745405 0 14.012132-6.265704 14.012132-14.012132C725.709825 706.225563 719.443098 699.959859 711.69667 699.959859zM711.69667 762.930029l-333.280596 0c-7.744381 0-14.012132 6.269797-14.012132 14.012132 0 7.744381 6.26775 14.010085 14.012132 14.010085l333.280596 0c7.745405 0 14.012132-6.265704 14.012132-14.010085C725.709825 769.199827 719.443098 762.930029 711.69667 762.930029zM813.229111 665.408949c11.712763-3.354398 20.47124-13.700023 20.47124-26.507724L833.700351 156.687622c0-15.476483-12.533454-28.024264-28.02324-28.024264L273.571191 128.663358c-45.921889 0-83.278705 37.371142-83.278705 83.307358L190.292486 812.027238c0 45.939285 37.356816 83.308381 83.278705 83.308381l532.10592 0c11.110035 0 21.181415-6.583952 25.669636-16.762779 4.459568-10.17985 2.491751-22.046109-5.034666-30.227442-12.918217-14.054087-20.033265-32.021298-20.033265-50.602492 0-11.56336 2.626827-22.63144 7.772011-32.910551 6.952342-13.8351 1.370207-30.67872-12.478196-37.614689-13.847379-6.993275-30.652114-1.370207-37.601386 12.462846-9.113565 18.159592-13.739932 37.687344-13.739932 58.062394 0 14.245446 2.353604 28.244274 6.869455 41.543162L273.571191 839.286068c-15.024182 0-27.230178-12.233626-27.230178-27.258831L246.341013 211.969693c0-15.025205 12.205996-27.257807 27.230178-27.257807l294.392914 0 0 299.975049c0 5.364171 3.065825 10.249435 7.880481 12.603039 4.816702 2.325975 10.565636 1.737574 14.779611-1.574868l60.590983-47.439452 60.592007 47.439452c2.518357 1.971911 5.583159 2.983961 8.646937 2.983961 2.080382 0 4.188392-0.465604 6.130627-1.409093 4.816702-2.353604 7.882528-7.238868 7.882528-12.603039L734.467279 184.711885l43.185568 0 0 454.18934c0 0.357134 0.192382 0.644683 0.192382 0.984421L329.210395 639.885646c-38.178531 0-69.239967 31.091112-69.239967 69.297272 0 7.743358 6.26775 14.011108 14.012132 14.011108s14.012132-6.26775 14.012132-14.011108c0-22.756283 18.500353-41.270962 41.215704-41.270962l476.466716 0C808.522925 667.910932 811.012629 666.856927 813.229111 665.408949zM706.441992 455.92282l-46.577828-36.479843c-5.090948-3.969405-12.20702-3.969405-17.295921 0l-46.581921 36.479843L595.986321 184.711885l110.454648 0L706.440969 455.92282z" /></svg>