<?xml version="1.0" standalone="no"?><!DOCTYPE svg PUBLIC "-//W3C//DTD SVG 1.1//EN" "http://www.w3.org/Graphics/SVG/1.1/DTD/svg11.dtd"><svg class="icon" width="200px" height="200.00px" viewBox="0 0 1024 1024" version="1.1" xmlns="http://www.w3.org/2000/svg"><path fill="#2c2c2c" d="M169.36 912.36c-68.9 0-125-55.66-125-124.08V371.13a123.08 123.08 0 0 1 33-83.86 125 125 0 0 1 80.74-39.66l2.93-0.26 0.62-2.88A113.85 113.85 0 0 1 273 155.11h204.29c25.92 0 52.2 10 74 28.09 21.38 17.75 36.2 41.26 41.73 66.17l0.7 3.13H861.3c33.46 0 64.17 12 86.49 33.7s34.74 52 34.74 84.93v417.14c0 68.42-56.06 124.08-125 124.08z m0.89-629.51c-18.05 0-37.75 13.76-54 37.76-14.42 21.24-23.9 47.53-24.16 67L91.9 788.3c0 42.44 34.76 77 77.48 77h688.19c42.72 0 77.47-34.53 77.47-77V371.13c0-41-29.63-84.88-73.73-84.88l-686.11-3.06a35.76 35.76 0 0 0-4.95-0.34z m106.39-94c-24.24 1.75-62.36 35-73.79 52.26-4 6-5.27 10.45-4.08 13.91l1.84 5.33 4.42-3.5c1.45-0.95 16.52-5.76 169.37-5.76 81.52 0 163.35 1.33 166.8 1.39l6.32 0.11-2.58-5.74c-6.12-13.61-28.47-58-59.3-58h-209z m162.6 628.85c-132.15 0-239.67-106.77-239.67-238s107.51-238 239.67-238 239.67 106.77 239.67 238-107.52 238.01-239.67 238.01z m0-428.91c-106 0-192.17 85.64-192.17 190.9s86.21 190.88 192.17 190.88S631.39 685 631.39 579.7s-86.2-190.9-192.15-190.9z m387.23 58.75A36.21 36.21 0 1 1 863 411.35a36.39 36.39 0 0 1-36.53 36.2z"  /></svg>