<?xml version="1.0" standalone="no"?><!DOCTYPE svg PUBLIC "-//W3C//DTD SVG 1.1//EN" "http://www.w3.org/Graphics/SVG/1.1/DTD/svg11.dtd"><svg class="icon" width="200px" height="200.00px" viewBox="0 0 1024 1024" version="1.1" xmlns="http://www.w3.org/2000/svg"><path fill="#2c2c2c" d="M960 288c0-39.36-26.752-73.024-65.152-81.856L530.624 122.048C524.48 120.704 518.272 120 512 120S499.52 120.704 493.12 122.112L129.152 206.144C90.752 214.976 64 248.64 64 288s26.752 73.088 65.152 81.856l74.88 17.344 0 236.8c0 74.304 84.992 140.032 308.032 140.032s308.032-65.664 308.032-140.032l0-236.8 74.88-17.344C933.248 361.088 960 327.36 960 288zM764.032 624c0 30.912-84.032 84.032-252.032 84.032S260.032 654.912 260.032 624L260.032 400.064l233.344 53.952C499.52 455.296 505.728 456 512 456s12.48-0.704 18.88-2.112l233.152-53.824L764.032 624 764.032 624zM518.4 399.296C516.224 399.808 514.112 400.064 512 400.064S507.776 399.808 505.6 399.296L141.76 315.328C129.024 312.384 120 301.056 120 288c0-12.992 9.024-24.32 21.76-27.328L505.6 176.768C507.776 176.256 509.888 176 512 176s4.224 0.256 6.4 0.768l363.904 83.968c12.736 3.008 21.76 14.336 21.76 27.328 0 13.056-9.024 24.384-21.76 27.328L518.4 399.296zM876.032 428.032l0 252.032c0 15.488 12.48 28.032 28.032 28.032s28.032-12.48 28.032-28.032L932.096 428.032c0-15.488-12.48-27.968-28.032-27.968S876.032 412.48 876.032 428.032zM904 736c-30.976 0-56 81.088-56 112s25.024 56 56 56S960 878.912 960 848 934.976 736 904 736z" /></svg>