<?xml version="1.0" standalone="no"?><!DOCTYPE svg PUBLIC "-//W3C//DTD SVG 1.1//EN" "http://www.w3.org/Graphics/SVG/1.1/DTD/svg11.dtd"><svg class="icon" width="200px" height="200.00px" viewBox="0 0 1024 1024" version="1.1" xmlns="http://www.w3.org/2000/svg"><path fill="#2c2c2c" d="M449.422222 711.111111c0-106.825956-86.596267-193.422222-193.422222-193.422222s-193.422222 86.596267-193.422222 193.422222 86.596267 193.422222 193.422222 193.422222 193.422222-86.596267 193.422222-193.422222z m-329.955555 0c0-75.400533 61.1328-136.533333 136.533333-136.533333s136.533333 61.1328 136.533333 136.533333-61.1328 136.533333-136.533333 136.533333-136.533333-61.1328-136.533333-136.533333zM950.044444 703.294578c0-111.149511-90.100622-201.250133-201.250133-201.250134-111.138133 0-201.238756 90.100622-201.238755 201.250134 0 111.138133 90.100622 201.238756 201.250133 201.238755 111.138133 0 201.238756-90.100622 201.238755-201.250133z m-345.6 0c0-79.735467 64.625778-144.361244 144.361245-144.361245 79.724089 0 144.349867 64.625778 144.349867 144.361245 0 79.724089-64.625778 144.349867-144.361245 144.349866-79.724089 0-144.349867-64.625778-144.349867-144.361244zM483.555556 278.755556c0-69.12-56.035556-125.155556-125.155556-125.155556s-125.155556 56.035556-125.155556 125.155556 56.035556 125.155556 125.155556 125.155555 125.155556-56.035556 125.155556-125.155555z m-193.422223 0a68.266667 68.266667 0 1 1 136.533334 0 68.266667 68.266667 0 0 1-136.533334 0zM408.689778 360.914489a200.4992 200.4992 0 0 1-3.333689 22.198044c-4.767289 23.210667-13.266489 46.421333-26.350933 67.902578-16.804978 27.625244-40.049778 50.4832-70.974578 67.299556a28.444444 28.444444 0 0 0 27.181511 49.9712c40.027022-21.754311 70.519467-51.757511 92.387555-87.688534 16.748089-27.500089 27.477333-56.775111 33.4848-86.050133 3.640889-17.726578 4.903822-31.823644 4.937956-40.607289a28.444444 28.444444 0 0 0-56.888889-0.193422c0 0.955733-0.113778 3.413333-0.455111 7.168zM423.389867 374.101333c4.289422 1.900089 9.102222 4.141511 14.290489 6.678756a421.694578 421.694578 0 0 1 43.3152 24.302933c46.3872 30.014578 62.418489 54.875022 49.060977 72.704-5.814044 7.771022-23.813689 31.072711-24.519111 32.005689-9.124978 11.969422-15.303111 20.741689-20.673422 29.707378-28.251022 47.160889-28.16 93.775644-0.079644 195.447467a28.444444 28.444444 0 1 0 54.840888-15.132445c-24.348444-88.120889-24.405333-120.285867-5.950577-151.074133 4.061867-6.792533 9.170489-14.051556 17.123555-24.496356 0.466489-0.6144 18.670933-24.177778 24.803556-32.347022 22.482489-30.037333 21.4016-63.738311 1.513244-94.594844-13.937778-21.617778-36.408889-41.346844-65.206044-59.983645a477.468444 477.468444 0 0 0-49.220267-27.636622 406.334578 406.334578 0 0 0-22.721422-10.387911 28.444444 28.444444 0 0 0-21.617778 52.610844c0.796444 0.341333 2.525867 1.069511 5.040356 2.184534z" /></svg>