<?xml version="1.0" standalone="no"?><!DOCTYPE svg PUBLIC "-//W3C//DTD SVG 1.1//EN" "http://www.w3.org/Graphics/SVG/1.1/DTD/svg11.dtd"><svg class="icon" width="200px" height="200.00px" viewBox="0 0 1024 1024" version="1.1" xmlns="http://www.w3.org/2000/svg"><path fill="#2c2c2c" d="M272.047944 727.574767C250.618655 727.574767 233.213788 745.055403 233.213788 766.622549 233.213788 788.161024 250.618655 805.647804 272.047944 805.647804L414.722403 805.647804C412.104998 788.582912 410.743828 771.106372 410.743828 753.307307 410.743828 744.647885 411.069856 736.072397 411.700518 727.574767L272.047944 727.574767 272.047944 727.574767ZM530.646163 493.277867 272.047944 493.277867C250.618655 493.277867 233.213788 510.763588 233.213788 532.326639 233.213788 553.891772 250.618655 571.374421 272.047944 571.374421L463.066419 571.374421C481.551258 541.997739 504.380436 515.670289 530.646163 493.277867L530.646163 493.277867ZM766.383623 117.941999 805.22185 117.941999C848.068202 117.941999 882.950274 152.968806 882.950274 196.052924L882.950274 439.701436C910.987766 451.732685 937.0752 467.451119 960.62877 486.247526L960.62877 196.045756C960.62877 109.783279 891.040891 39.852578 805.221854 39.852578L766.383623 39.852578C744.896259 39.852578 727.514829 57.344478 727.514829 78.893193 727.514825 100.441941 744.89728 117.941999 766.383623 117.941999L766.383623 117.941999ZM380.930492 117.941999 575.170546 117.941999C607.400571 117.941999 633.45438 91.711863 633.45438 59.366741 633.45438 27.034965 607.343517 0.80483 575.170546 0.80483L380.930492 0.80483C348.731034 0.80483 322.610999 27.034965 322.610999 59.366741 322.610999 91.704695 348.730013 117.941999 380.930492 117.941999L380.930492 117.941999ZM455.883592 923.314381 155.506763 923.314381C112.628828 923.314381 77.798721 888.286549 77.798721 845.211648L77.798721 196.045756C77.798721 152.96983 112.629849 117.943023 155.506763 117.943023L194.37454 117.943023C215.802808 117.943023 233.213788 100.442965 233.213788 78.894217 233.213788 57.345502 215.803829 39.846434 194.37454 39.846434L155.506763 39.846434C69.660215 39.846434 0.06928 109.783279 0.06928 196.045756L0.06928 845.203456C0.06928 931.476173 69.659197 1001.403802 155.506763 1001.403802L517.365569 1001.403802C493.286274 978.604851 472.518212 952.306074 455.883592 923.314381L455.883592 923.314381ZM272.047944 337.702127 688.646031 337.702127C710.104866 337.702127 727.514825 320.219443 727.514825 298.661513 727.514825 277.113822 710.103849 259.614754 688.646031 259.614754L272.047944 259.614754C250.618655 259.614754 233.213788 277.112798 233.213788 298.661513 233.213788 320.219443 250.618655 337.702127 272.047944 337.702127L272.047944 337.702127ZM749.892659 482.946355C601.321148 482.946355 480.879841 603.991893 480.879841 753.306283 480.879841 902.61859 601.321148 1023.66109 749.892659 1023.66109 898.464171 1023.66109 1018.906487 902.61859 1018.906487 753.306283 1018.906487 603.991893 898.464171 482.946355 749.892659 482.946355L749.892659 482.946355ZM926.184789 736.265933C926.184789 743.919855 919.681539 750.288725 911.875178 750.288725L911.875178 750.296917 772.658664 750.296917 772.658664 808.965359 911.876195 808.965359C919.682557 808.965359 926.185813 815.339349 926.185813 822.990199L926.185813 848.498483C926.185813 856.144213 919.682557 862.529468 911.876195 862.529468L771.360662 862.529468 771.360662 916.088457C771.360662 923.747499 764.856378 930.119441 757.052054 930.119441L731.026773 930.119441C723.223467 930.119441 716.720203 923.747499 716.720203 916.088457L716.720203 862.529468 587.913196 862.529468C580.108868 862.529468 573.606625 856.144213 573.606625 848.498483L573.606625 822.990199C573.606625 815.338325 580.108868 808.965359 587.913196 808.965359L716.721224 808.965359 716.721224 750.296917 587.913196 750.296917C580.108868 750.296917 573.606625 743.918831 573.606625 736.265933L573.606625 710.759697C573.606625 703.109871 580.108868 696.728713 587.913196 696.728713L675.084237 696.728713 626.818669 618.667964C621.957775 610.142686 621.736687 593.59587 636.100311 585.33376 654.427228 574.649993 671.303315 587.801429 671.303315 587.801429L742.739371 696.728713 746.643572 696.728713 814.615569 587.801429C821.56814 576.116292 839.406015 571.876147 854.840439 582.870153 873.648251 597.011729 862.388016 614.910123 862.388016 614.910123L812.996628 696.728713 911.875178 696.728713C919.681539 696.728713 926.184789 703.106799 926.184789 710.759697L926.184789 736.265933 926.184789 736.265933Z" /></svg>