<?xml version="1.0" standalone="no"?><!DOCTYPE svg PUBLIC "-//W3C//DTD SVG 1.1//EN" "http://www.w3.org/Graphics/SVG/1.1/DTD/svg11.dtd"><svg class="icon" width="200px" height="200.00px" viewBox="0 0 1024 1024" version="1.1" xmlns="http://www.w3.org/2000/svg"><path fill="#2c2c2c" d="M170.666667 42.666667a42.666667 42.666667 0 0 0-42.666667 42.666666v725.333334a42.666667 42.666667 0 0 0 42.666667 42.666666h554.666666a42.666667 42.666667 0 0 0 42.666667-42.666666V85.333333a42.666667 42.666667 0 0 0-42.666667-42.666666H170.666667z m0-42.666667h554.666666a85.333333 85.333333 0 0 1 85.333334 85.333333v725.333334a85.333333 85.333333 0 0 1-85.333334 85.333333H170.666667a85.333333 85.333333 0 0 1-85.333334-85.333333V85.333333a85.333333 85.333333 0 0 1 85.333334-85.333333z"  /><path fill="#2c2c2c" d="M896.896 277.226667c0-11.733333 9.344-21.226667 20.885333-21.226667 11.52 0 20.885333 9.493333 20.885334 21.226667v645.546666C938.666667 978.730667 893.888 1024 838.698667 1024H362.218667a21.056 21.056 0 0 1-20.885334-21.226667c0-11.733333 9.344-21.226667 20.906667-21.226666h476.458667c32.170667 0 58.197333-26.325333 58.197333-58.752V277.226667zM209.621333 242.048a21.333333 21.333333 0 1 1 0-42.666667h383.552a21.333333 21.333333 0 1 1 0 42.666667H209.621333zM206.784 469.909333a21.333333 21.333333 0 0 1 0-42.666666h475.605333a21.333333 21.333333 0 1 1 0 42.666666H206.784z"  /><path fill="#2c2c2c" d="M206.784 669.269333a21.333333 21.333333 0 0 1 0-42.666666h475.605333a21.333333 21.333333 0 1 1 0 42.666666H206.784z"  /></svg>